# Generated by tools/make_hair_styles.py -- do not edit by hand.
# Bantu knots: 1087 vertices, 1008 faces.
g bantu_knots
v -0.188394 8.146156 1.356724
v -0.378700 7.783300 1.353300
v -0.269300 7.817700 1.414500
v -0.489100 7.735500 1.282400
v -0.577600 7.669100 1.186700
v -0.430049 7.943485 1.271214
v -0.302910 7.988620 1.342089
v -0.544516 7.873342 1.180842
v -0.621900 7.773400 1.075500
v -0.162300 7.837300 1.452800
v 0.000000 7.849500 1.472700
v -0.061400 7.847800 1.468300
v -0.680200 7.546600 0.910500
v -0.667100 7.665000 0.979900
v -0.687200 7.705200 0.921100
v -0.249400 6.658800 -0.125700
v 0.000000 6.689700 -0.133500
v -0.750786 7.500923 0.416218
v -0.620097 8.164923 0.023035
v -0.502983 8.280448 -0.043580
v -0.828548 7.744908 0.274371
v -0.783772 7.876320 0.197151
v -0.732900 7.407200 0.454300
v -0.734200 7.442000 0.524700
v -0.727800 7.373900 0.399300
v -0.706800 7.303300 0.348200
v -0.726365 8.151194 0.361700
v -0.493486 8.437454 0.294893
v -0.001651 8.574898 0.292350
v -0.621166 8.307861 0.326638
v -0.000831 8.590928 0.704681
v -0.000202 8.502667 1.010059
v -0.434530 8.409244 0.959083
v -0.350000 6.709800 -0.091900
v -0.253800 6.721700 -0.133000
v 0.000000 6.759800 -0.151500
v -0.510900 6.998700 0.031400
v -0.453800 7.003400 -0.073000
v -0.378791 7.005259 -0.157965
v -0.288389 6.991481 -0.219683
v -0.000265 6.981718 -0.269988
v -0.572400 7.103900 0.111500
v -0.530600 7.110700 0.005600
v -0.477919 7.118236 -0.106733
v -0.418116 7.118238 -0.214235
v -0.335130 7.107834 -0.301325
v -0.000024 7.088912 -0.393179
v -0.650300 7.165600 0.264600
v -0.603595 7.212359 0.074497
v -0.574244 7.225468 -0.041545
v -0.538446 7.234196 -0.171194
v -0.473570 7.243266 -0.294380
v -0.377088 7.245106 -0.384612
v 0.001635 7.246800 -0.477167
v -0.702600 7.351900 0.286200
v -0.725084 7.434246 0.039607
v -0.684551 7.482785 -0.096582
v -0.609979 7.527655 -0.210665
v -0.518096 7.563373 -0.328508
v -0.402297 7.593119 -0.417264
v -0.000283 7.643621 -0.490685
v -0.737831 7.449458 0.341217
v -0.803659 7.646875 0.150598
v -0.753855 7.756068 0.047914
v -0.685686 7.864750 -0.065726
v -0.588950 7.973616 -0.195630
v -0.458903 8.055231 -0.272729
v -0.000064 8.136151 -0.343215
v -0.465485 8.475674 0.673806
v -0.605836 8.351439 0.652803
v -0.582665 8.310030 0.907937
v -0.662682 7.833470 1.017562
v -0.718783 8.192573 0.625667
v -0.801916 8.010026 0.597133
v -0.595893 7.957788 1.131971
v -0.801911 7.978518 0.395057
v -0.842714 7.815528 0.435635
v -0.748793 7.538991 0.505347
v -0.479081 8.048424 1.232729
v -0.341077 8.111218 1.312128
v -0.162202 8.003026 1.389747
v 0.000065 8.020899 1.405626
v -0.063085 8.016298 1.401179
v -0.786194 7.991866 0.761342
v -0.703434 8.166972 0.836825
v -0.839332 7.830749 0.582554
v -0.815784 7.818813 0.703794
v -0.609200 7.096400 0.197000
v -0.640900 7.184400 0.172900
v -0.718444 7.395913 0.180260
v -0.802147 7.536854 0.256038
v -0.821067 7.656688 0.480083
v -0.680109 8.104526 0.992625
v -0.764212 7.949628 0.887756
v -0.771697 7.789345 0.797543
v -0.552743 8.225144 1.087718
v 0.000028 8.371580 1.224222
v -0.075304 8.163859 1.370727
v 0.000726 8.165887 1.376560
v -0.401568 8.303465 1.155387
v -0.054000 6.685000 -0.135400
v -0.110009 8.355899 1.218545
v -0.162962 8.123920 -0.335742
v -0.134306 7.635292 -0.486602
v -0.055900 6.753200 -0.147500
v -0.168160 8.575403 0.701098
v -0.192418 8.553245 0.284519
v -0.124962 7.240705 -0.468819
v -0.108874 7.088937 -0.381266
v -0.077552 6.984177 -0.266240
v -0.134697 8.488163 1.008969
v -0.147900 6.676100 -0.132400
v -0.267354 8.466139 0.999885
v -0.151900 6.740100 -0.143600
v -0.182536 6.988450 -0.257146
v -0.267365 7.617505 -0.467342
v -0.256328 7.240154 -0.446847
v -0.227537 7.095819 -0.361106
v -0.308602 8.102549 -0.319898
v -0.336644 8.515601 0.284322
v -0.303814 8.548018 0.698304
v -0.233904 8.339049 1.203487
v -0.367400 7.722000 1.387000
v 0.000000 7.770500 1.497600
v -0.060500 7.767500 1.494100
v -0.160000 7.767200 1.476300
v -0.260800 7.750700 1.438900
v -0.513000 7.799600 1.233600
v -0.597700 7.718100 1.133800
v -0.397900 7.853500 1.314300
v -0.279400 7.892800 1.386700
v -0.643900 7.620900 1.042100
v 0.000000 7.919100 1.445400
v -0.062700 7.917200 1.441600
v -0.156900 7.910900 1.429000
v 0.000000 6.846700 -0.184300
v -0.060100 6.847400 -0.183100
v -0.159600 6.845700 -0.178700
v -0.266300 6.835400 -0.162900
v -0.358500 6.831400 -0.110600
v -0.437400 6.825900 -0.036600
v -0.354100 6.768000 -0.098500
v -0.259200 6.778700 -0.146700
v -0.156600 6.795700 -0.160300
v -0.057900 6.802900 -0.166100
v 0.000000 6.804600 -0.168400
v -0.727567 8.032787 0.111446
v -0.001017 8.403484 -0.099582
v -0.824569 7.604762 0.350325
v -0.186194 8.378327 -0.101495
v -0.336944 8.344647 -0.084231
v -0.719400 7.341000 0.370100
v -0.427786 7.806732 -0.384379
v -0.552760 7.754293 -0.293537
v -0.772831 7.539513 0.068509
v -0.721012 7.407429 0.307447
v -0.646510 7.687495 -0.159323
v -0.718349 7.617948 -0.045708
v -0.000011 7.878901 -0.456202
v -0.760125 7.466251 0.208597
v -0.148741 7.853809 -0.453173
v -0.288053 7.838694 -0.436693
v -0.691700 7.252600 0.331800
v -0.664604 7.330331 0.039088
v -0.682600 7.291200 0.260100
v -0.496044 7.400974 -0.336878
v -0.586866 7.378014 -0.226143
v -0.646716 7.352445 -0.098856
v 0.000780 7.438288 -0.491528
v -0.384489 7.415081 -0.414746
v -0.676000 7.316243 0.161455
v -0.122485 7.431489 -0.487779
v -0.254141 7.422300 -0.467677
v -0.695100 7.577100 0.854500
v -0.798902 7.672035 0.576468
v -0.760705 7.663185 0.663184
v -0.728864 7.642736 0.736614
v -0.740346 7.547875 0.574621
v -0.734300 7.540600 0.640300
v -0.721300 7.516400 0.706100
v -0.732200 7.448100 0.577000
v -0.728100 7.438400 0.626900
v -0.822400 7.347500 0.483400
v -0.785200 7.343800 0.548100
v -0.850600 7.313400 0.405900
v -0.856600 7.253500 0.366300
v -0.835500 7.160200 0.344200
v -0.856500 7.284200 0.385300
v -0.853100 7.216000 0.354000
v -0.842000 7.329300 0.483000
v -0.805000 7.323200 0.550600
v -0.871900 7.308900 0.421000
v -0.879300 7.240500 0.375400
v -0.853500 7.157000 0.354400
v -0.878900 7.269900 0.392300
v -0.872500 7.205300 0.364600
v -0.836500 7.316200 0.483200
v -0.808900 7.303500 0.552100
v -0.866600 7.295900 0.431000
v -0.869100 7.230000 0.388500
v -0.857700 7.153600 0.374900
v -0.874400 7.261300 0.401900
v -0.863700 7.193700 0.378500
v -0.812600 7.289200 0.483300
v -0.823400 7.279000 0.444000
v -0.840300 7.218300 0.406700
v -0.859700 7.251700 0.421900
v -0.841500 7.184500 0.400900
v 0.000000 6.898100 -0.204100
v -0.064000 6.901300 -0.203900
v -0.162700 6.904700 -0.200300
v -0.270600 6.904100 -0.180400
v -0.644608 8.033582 1.081350
v -0.520305 8.139140 1.186406
v -0.364600 6.907400 -0.130300
v -0.713150 7.892851 0.964708
v -0.718864 7.749126 0.864778
v -0.443200 6.904400 -0.050800
v 0.003059 8.281540 1.325627
v -0.375268 8.211219 1.260178
v -0.095143 8.275676 1.318097
v -0.212215 8.251811 1.303751
v -0.713100 7.611200 0.798500
v -0.709500 7.482600 0.757500
v -0.839600 7.210300 0.432600
v -0.831600 7.237600 0.447800
v -0.825900 7.249500 0.467300
v -0.812500 7.261400 0.490200
v -0.810400 7.300900 0.483300
v -0.865200 7.255200 0.414300
v -0.843300 7.189500 0.393300
v -0.856000 7.281600 0.439300
v -0.860900 7.222000 0.399200
v -0.840900 7.181700 0.410600
v -0.837000 7.246500 0.432100
v -0.837800 7.217300 0.416400
v -0.818200 7.269400 0.451700
v -0.816000 7.276300 0.487800
v -0.796600 7.307200 0.439700
v -0.773900 7.323200 0.486800
v -0.804600 7.282300 0.409700
v -0.796400 7.251400 0.399200
v -0.784700 7.212400 0.390200
v -0.737400 7.312500 0.443500
v -0.736100 7.254600 0.403900
v -0.730900 7.366200 0.531100
v -0.732500 7.347900 0.466800
v -0.738000 7.286700 0.420100
v -0.731000 7.369400 0.581700
v 0.187672 8.147068 1.356309
v 0.378700 7.783300 1.353300
v 0.269300 7.817700 1.414500
v 0.489100 7.735500 1.282400
v 0.577600 7.669100 1.186700
v 0.430137 7.943395 1.271183
v 0.303053 7.988548 1.342047
v 0.544608 7.873179 1.180796
v 0.621900 7.773400 1.075500
v 0.162300 7.837300 1.452800
v 0.061400 7.847800 1.468300
v 0.680200 7.546600 0.910500
v 0.667100 7.665000 0.979900
v 0.687200 7.705200 0.921100
v 0.249400 6.658800 -0.125700
v 0.750772 7.500851 0.416012
v 0.619574 8.166283 0.023712
v 0.501298 8.281397 -0.044308
v 0.828538 7.743003 0.273170
v 0.782552 7.880859 0.196403
v 0.732900 7.407200 0.454300
v 0.734200 7.442000 0.524700
v 0.727800 7.373900 0.399300
v 0.706800 7.303300 0.348200
v 0.726176 8.152295 0.364206
v 0.494798 8.436518 0.294987
v 0.622951 8.306129 0.328782
v 0.436192 8.408031 0.959463
v 0.350000 6.709800 -0.091900
v 0.253800 6.721700 -0.133000
v 0.510900 6.998700 0.031400
v 0.453800 7.003400 -0.073000
v 0.378738 7.005327 -0.158038
v 0.287647 6.991332 -0.219980
v 0.572400 7.103900 0.111500
v 0.530600 7.110700 0.005600
v 0.478003 7.118313 -0.106656
v 0.417510 7.118817 -0.215049
v 0.331971 7.106772 -0.302767
v 0.650300 7.165600 0.264600
v 0.603606 7.212372 0.074511
v 0.574925 7.225985 -0.040656
v 0.539131 7.234132 -0.170255
v 0.474840 7.241221 -0.292448
v 0.375848 7.244696 -0.385251
v 0.702600 7.351900 0.286200
v 0.724943 7.433917 0.039386
v 0.685713 7.483878 -0.094755
v 0.609020 7.527046 -0.211960
v 0.516165 7.561891 -0.330376
v 0.402361 7.592878 -0.417234
v 0.737802 7.449476 0.340945
v 0.803702 7.646639 0.150690
v 0.752446 7.756407 0.044646
v 0.686505 7.864594 -0.064206
v 0.589701 7.974277 -0.194270
v 0.457836 8.055403 -0.273419
v 0.469632 8.473177 0.671463
v 0.610216 8.346638 0.651024
v 0.585512 8.306840 0.908026
v 0.662688 7.833533 1.017522
v 0.719985 8.190531 0.624736
v 0.801862 8.010116 0.597803
v 0.596458 7.957092 1.131563
v 0.801099 7.981729 0.396644
v 0.843000 7.812634 0.433822
v 0.748789 7.538926 0.505295
v 0.480135 8.046902 1.232708
v 0.342110 8.110188 1.312214
v 0.162174 8.002981 1.389783
v 0.063089 8.016276 1.401192
v 0.786006 7.990703 0.764572
v 0.704773 8.163456 0.839108
v 0.839644 7.828294 0.583696
v 0.815548 7.818777 0.705684
v 0.609200 7.096400 0.197000
v 0.640900 7.184400 0.172900
v 0.718322 7.395663 0.179997
v 0.801879 7.536922 0.254709
v 0.821063 7.654273 0.479036
v 0.682213 8.097437 0.995593
v 0.764348 7.946506 0.890320
v 0.771265 7.790223 0.799276
v 0.553515 8.221847 1.090472
v 0.074286 8.164941 1.370119
v 0.397841 8.303330 1.158686
v 0.054000 6.685000 -0.135400
v 0.109192 8.354762 1.220361
v 0.161883 8.123843 -0.335961
v 0.135137 7.635621 -0.486505
v 0.055900 6.753200 -0.147500
v 0.165655 8.575712 0.701896
v 0.188949 8.553461 0.283042
v 0.127009 7.240479 -0.468560
v 0.108322 7.088787 -0.381261
v 0.077032 6.983948 -0.266159
v 0.133390 8.488278 1.009182
v 0.147900 6.676100 -0.132400
v 0.268134 8.465708 1.000262
v 0.151900 6.740100 -0.143600
v 0.181300 6.987621 -0.256994
v 0.268960 7.617969 -0.466901
v 0.254024 7.241183 -0.447799
v 0.223639 7.093308 -0.361156
v 0.307572 8.102347 -0.320405
v 0.334185 8.515946 0.282062
v 0.302303 8.548756 0.696064
v 0.232303 8.337712 1.206025
v 0.367400 7.722000 1.387000
v 0.060500 7.767500 1.494100
v 0.160000 7.767200 1.476300
v 0.260800 7.750700 1.438900
v 0.513000 7.799600 1.233600
v 0.597700 7.718100 1.133800
v 0.397900 7.853500 1.314300
v 0.279400 7.892800 1.386700
v 0.643900 7.620900 1.042100
v 0.062700 7.917200 1.441600
v 0.156900 7.910900 1.429000
v 0.060100 6.847400 -0.183100
v 0.159600 6.845700 -0.178700
v 0.266300 6.835400 -0.162900
v 0.358500 6.831400 -0.110600
v 0.437400 6.825900 -0.036600
v 0.354100 6.768000 -0.098500
v 0.259200 6.778700 -0.146700
v 0.156600 6.795700 -0.160300
v 0.057900 6.802900 -0.166100
v 0.727525 8.035380 0.114225
v 0.824392 7.603219 0.348749
v 0.183555 8.379259 -0.100863
v 0.336316 8.344835 -0.084336
v 0.719400 7.341000 0.370100
v 0.430256 7.807401 -0.382755
v 0.553389 7.754321 -0.292844
v 0.773261 7.539223 0.069580
v 0.721005 7.407434 0.307407
v 0.645057 7.686672 -0.161661
v 0.717966 7.617862 -0.046422
v 0.759905 7.465802 0.208012
v 0.149595 7.853947 -0.453040
v 0.289162 7.839193 -0.436237
v 0.691700 7.252600 0.331800
v 0.664563 7.330316 0.039009
v 0.682600 7.291200 0.260100
v 0.496299 7.398255 -0.336139
v 0.587786 7.378101 -0.224936
v 0.647572 7.352854 -0.097551
v 0.383645 7.415227 -0.415230
v 0.676011 7.316325 0.161434
v 0.123884 7.430708 -0.487619
v 0.254002 7.424245 -0.467846
v 0.695100 7.577100 0.854500
v 0.798883 7.671288 0.576868
v 0.760657 7.663377 0.663623
v 0.728854 7.642742 0.736673
v 0.740346 7.547876 0.574624
v 0.734300 7.540600 0.640300
v 0.721300 7.516400 0.706100
v 0.732200 7.448100 0.577000
v 0.728100 7.438400 0.626900
v 0.822400 7.347500 0.483400
v 0.785200 7.343800 0.548100
v 0.850600 7.313400 0.405900
v 0.856600 7.253500 0.366300
v 0.835500 7.160200 0.344200
v 0.856500 7.284200 0.385300
v 0.853100 7.216000 0.354000
v 0.842000 7.329300 0.483000
v 0.805000 7.323200 0.550600
v 0.871900 7.308900 0.421000
v 0.879300 7.240500 0.375400
v 0.853500 7.157000 0.354400
v 0.878900 7.269900 0.392300
v 0.872500 7.205300 0.364600
v 0.836500 7.316200 0.483200
v 0.808900 7.303500 0.552100
v 0.866600 7.295900 0.431000
v 0.869100 7.230000 0.388500
v 0.857700 7.153600 0.374900
v 0.874400 7.261300 0.401900
v 0.863700 7.193700 0.378500
v 0.812600 7.289200 0.483300
v 0.823400 7.279000 0.444000
v 0.840300 7.218300 0.406700
v 0.859700 7.251700 0.421900
v 0.841500 7.184500 0.400900
v 0.064000 6.901300 -0.203900
v 0.162700 6.904700 -0.200300
v 0.270600 6.904100 -0.180400
v 0.645829 8.027281 1.083949
v 0.522078 8.134793 1.187855
v 0.364600 6.907400 -0.130300
v 0.713598 7.891115 0.964599
v 0.718981 7.749165 0.864353
v 0.443200 6.904400 -0.050800
v 0.374747 8.211206 1.260540
v 0.096059 8.274851 1.318691
v 0.212396 8.251775 1.303713
v 0.713100 7.611200 0.798500
v 0.709500 7.482600 0.757500
v 0.839600 7.210300 0.432600
v 0.831600 7.237600 0.447800
v 0.825900 7.249500 0.467300
v 0.812500 7.261400 0.490200
v 0.810400 7.300900 0.483300
v 0.865200 7.255200 0.414300
v 0.843300 7.189500 0.393300
v 0.856000 7.281600 0.439300
v 0.860900 7.222000 0.399200
v 0.840900 7.181700 0.410600
v 0.837000 7.246500 0.432100
v 0.837800 7.217300 0.416400
v 0.818200 7.269400 0.451700
v 0.816000 7.276300 0.487800
v 0.796600 7.307200 0.439700
v 0.773900 7.323200 0.486800
v 0.804600 7.282300 0.409700
v 0.796400 7.251400 0.399200
v 0.784700 7.212400 0.390200
v 0.737400 7.312500 0.443500
v 0.736100 7.254600 0.403900
v 0.730900 7.366200 0.531100
v 0.732500 7.347900 0.466800
v 0.738000 7.286700 0.420100
v 0.731000 7.369400 0.581700
v -0.240000 8.371612 -0.091452
v -0.194164 8.468853 0.010747
v -0.074164 8.528951 0.073910
v 0.074164 8.528951 0.073910
v 0.194164 8.468853 0.010747
v 0.240000 8.371612 -0.091452
v 0.194164 8.274372 -0.193651
v 0.074164 8.214274 -0.256813
v -0.074164 8.214274 -0.256813
v -0.194164 8.274372 -0.193651
v -0.234199 8.415160 -0.103713
v -0.177048 8.507267 -0.006908
v -0.052271 8.558628 0.047072
v 0.092472 8.549624 0.037609
v 0.201894 8.483695 -0.031683
v 0.234199 8.386022 -0.134336
v 0.177048 8.293915 -0.231141
v 0.052271 8.242554 -0.285121
v -0.092472 8.251558 -0.275658
v -0.201894 8.317487 -0.206366
v -0.216410 8.456715 -0.118068
v -0.151932 8.539213 -0.031363
v -0.029422 8.579831 0.011327
v 0.104327 8.563054 -0.006305
v 0.198226 8.495291 -0.077524
v 0.216410 8.402424 -0.175126
v 0.151932 8.319926 -0.261831
v 0.029422 8.279308 -0.304521
v -0.104327 8.296085 -0.286889
v -0.198226 8.363848 -0.215670
v -0.185044 8.493850 -0.137068
v -0.119602 8.562081 -0.065357
v -0.008476 8.590767 -0.035208
v 0.105888 8.568950 -0.058138
v 0.179806 8.504963 -0.125388
v 0.185044 8.423247 -0.211271
v 0.119602 8.355015 -0.282982
v 0.008476 8.326329 -0.313131
v -0.105888 8.348147 -0.290201
v -0.179806 8.412134 -0.222951
v -0.134769 8.522494 -0.164992
v -0.079214 8.570420 -0.114622
v 0.006599 8.586683 -0.097529
v 0.089891 8.565073 -0.120242
v 0.138847 8.513842 -0.174085
v 0.134769 8.452560 -0.238492
v 0.079214 8.404634 -0.288862
v -0.006599 8.388370 -0.305955
v -0.089891 8.409981 -0.283242
v -0.138847 8.461212 -0.229399
v 0.000000 8.538239 -0.249994
v 0.071172 8.603741 0.704817
v 0.101718 8.555470 0.841704
v 0.206159 8.492733 0.926305
v 0.344604 8.439494 0.926305
v 0.464170 8.416089 0.841704
v 0.519188 8.431457 0.704817
v 0.488643 8.479728 0.567929
v 0.384201 8.542465 0.483329
v 0.245757 8.595704 0.483329
v 0.126190 8.619109 0.567929
v 0.088685 8.633120 0.734992
v 0.130437 8.582467 0.864654
v 0.240437 8.520874 0.936955
v 0.376668 8.471868 0.924280
v 0.487095 8.454168 0.831470
v 0.529539 8.474534 0.693975
v 0.487786 8.525187 0.564313
v 0.377786 8.586780 0.492011
v 0.241555 8.635786 0.504686
v 0.131128 8.653486 0.597496
v 0.117638 8.658848 0.762363
v 0.167438 8.608709 0.878497
v 0.276674 8.551446 0.935676
v 0.403621 8.508929 0.912059
v 0.499791 8.497401 0.816667
v 0.528448 8.521263 0.685937
v 0.478648 8.571401 0.569803
v 0.369413 8.628665 0.512624
v 0.242465 8.671181 0.536241
v 0.146296 8.682710 0.631632
v 0.159819 8.681149 0.783511
v 0.212314 8.635332 0.879562
v 0.312426 8.586059 0.919944
v 0.421914 8.552151 0.889231
v 0.498958 8.546558 0.799155
v 0.514131 8.571418 0.684122
v 0.461635 8.617234 0.588071
v 0.361523 8.666507 0.547689
v 0.252035 8.700415 0.578402
v 0.174991 8.706008 0.668478
v 0.220717 8.699441 0.792707
v 0.266540 8.663818 0.860173
v 0.344588 8.627696 0.883068
v 0.425049 8.604872 0.852646
v 0.477190 8.604064 0.780528
v 0.481095 8.625581 0.694259
v 0.435272 8.661204 0.626793
v 0.357224 8.697327 0.603898
v 0.276763 8.720150 0.634320
v 0.224622 8.720958 0.706439
v 0.375286 8.725910 0.760400
v 0.317920 7.743841 -0.416782
v 0.356676 7.884907 -0.392290
v 0.457120 7.972090 -0.326630
v 0.580886 7.972090 -0.244880
v 0.680701 7.884907 -0.178267
v 0.718438 7.743841 -0.152234
v 0.679683 7.602776 -0.176725
v 0.579238 7.515593 -0.242385
v 0.455472 7.515593 -0.324135
v 0.355657 7.602776 -0.390748
v 0.344882 7.764714 -0.447076
v 0.393052 7.898334 -0.416308
v 0.497436 7.972842 -0.347945
v 0.618165 7.959781 -0.268100
v 0.709122 7.864137 -0.207270
v 0.735567 7.722445 -0.188691
v 0.687397 7.588825 -0.219459
v 0.583012 7.514317 -0.287822
v 0.462284 7.527378 -0.367667
v 0.371326 7.623022 -0.428497
v 0.381837 7.782697 -0.470747
v 0.436070 7.902376 -0.435865
v 0.538507 7.961300 -0.368666
v 0.650020 7.936962 -0.294819
v 0.728016 7.838659 -0.242529
v 0.742702 7.703938 -0.231771
v 0.688469 7.584259 -0.266654
v 0.586032 7.525335 -0.333852
v 0.474519 7.549673 -0.407700
v 0.396523 7.647976 -0.459989
v 0.430097 7.794267 -0.486900
v 0.485060 7.893250 -0.451373
v 0.577935 7.934864 -0.390355
v 0.673247 7.903214 -0.327151
v 0.734590 7.810388 -0.285904
v 0.738533 7.691844 -0.282369
v 0.683570 7.592861 -0.317896
v 0.590695 7.551247 -0.378915
v 0.495383 7.582897 -0.442119
v 0.434040 7.675723 -0.483365
v 0.494090 7.793520 -0.492565
v 0.540697 7.863046 -0.462326
v 0.612385 7.886639 -0.415160
v 0.681772 7.855288 -0.369083
v 0.722354 7.780969 -0.341695
v 0.718630 7.692067 -0.343456
v 0.672023 7.622541 -0.373695
v 0.600334 7.598948 -0.420861
v 0.530948 7.630298 -0.466938
v 0.490366 7.704618 -0.494327
v 0.644939 7.742335 -0.476418
v -0.645945 8.178387 0.868777
v -0.582604 8.298899 0.809904
v -0.560789 8.373379 0.683500
v -0.588832 8.373379 0.537847
v -0.656023 8.298899 0.428580
v -0.736697 8.178387 0.397435
v -0.800038 8.057876 0.456308
v -0.821853 7.983395 0.582712
v -0.793809 7.983395 0.728365
v -0.726618 8.057876 0.837632
v -0.669808 8.217235 0.867465
v -0.612407 8.331386 0.798212
v -0.597965 8.395038 0.668362
v -0.631998 8.383880 0.527514
v -0.701508 8.302172 0.429465
v -0.779943 8.181125 0.411668
v -0.837344 8.066974 0.480921
v -0.851786 8.003322 0.610771
v -0.817753 8.014480 0.751620
v -0.748243 8.096188 0.849668
v -0.697413 8.253614 0.854664
v -0.648513 8.355855 0.779587
v -0.641598 8.406194 0.653495
v -0.679308 8.385403 0.524550
v -0.747241 8.301422 0.442006
v -0.819447 8.186331 0.437391
v -0.868348 8.084090 0.512468
v -0.875263 8.033751 0.638560
v -0.837552 8.054543 0.767504
v -0.769620 8.138523 0.850049
v -0.730859 8.284515 0.829161
v -0.692705 8.369076 0.755171
v -0.692473 8.404627 0.641959
v -0.730252 8.377588 0.532769
v -0.791610 8.298288 0.469307
v -0.853112 8.197016 0.475814
v -0.891265 8.112455 0.549805
v -0.891497 8.076904 0.663016
v -0.853719 8.103943 0.772206
v -0.792360 8.183243 0.835668
v -0.774166 8.304893 0.786301
v -0.749180 8.364289 0.724915
v -0.753361 8.384445 0.638331
v -0.785112 8.357662 0.559623
v -0.832305 8.294171 0.518853
v -0.876914 8.218223 0.531595
v -0.901900 8.158827 0.592982
v -0.897719 8.138671 0.679566
v -0.865968 8.165454 0.758274
v -0.818775 8.228945 0.799044
v -0.884261 8.297945 0.670254
v -0.492670 7.602186 -0.372655
v -0.454215 7.741654 -0.405383
v -0.342150 7.827850 -0.450248
v -0.199279 7.827850 -0.490114
v -0.080175 7.741654 -0.509753
v -0.030331 7.602186 -0.501664
v -0.068786 7.462718 -0.468936
v -0.180851 7.376522 -0.424071
v -0.323721 7.376522 -0.384205
v -0.442825 7.462718 -0.364566
v -0.498564 7.617073 -0.415363
v -0.448910 7.749180 -0.450055
v -0.331732 7.822845 -0.494370
v -0.191787 7.809931 -0.531383
v -0.082531 7.715371 -0.546955
v -0.045694 7.575283 -0.535138
v -0.095348 7.443176 -0.500446
v -0.212526 7.369511 -0.456131
v -0.352471 7.382425 -0.419118
v -0.461728 7.476986 -0.403546
v -0.492795 7.629103 -0.460875
v -0.435521 7.747427 -0.495519
v -0.319897 7.805684 -0.536971
v -0.190087 7.781622 -0.569397
v -0.095674 7.684432 -0.580412
v -0.072721 7.551237 -0.565809
v -0.129995 7.432913 -0.531165
v -0.245619 7.374656 -0.489713
v -0.375429 7.398718 -0.457286
v -0.469841 7.495908 -0.446271
v -0.473689 7.634794 -0.509108
v -0.414651 7.732656 -0.541017
v -0.309294 7.773799 -0.576905
v -0.197861 7.742507 -0.603063
v -0.122915 7.650733 -0.609500
v -0.113084 7.533531 -0.593758
v -0.172122 7.435668 -0.561849
v -0.277479 7.394525 -0.525961
v -0.388913 7.425817 -0.499803
v -0.463858 7.517592 -0.493365
v -0.435873 7.628306 -0.560641
v -0.385169 7.697045 -0.585631
v -0.303466 7.720371 -0.612108
v -0.221974 7.689376 -0.629959
v -0.171818 7.615897 -0.632365
v -0.172157 7.528002 -0.618407
v -0.222862 7.459264 -0.593417
v -0.304564 7.435937 -0.566940
v -0.386057 7.466933 -0.549089
v -0.436213 7.540412 -0.546683
v -0.322616 7.567640 -0.656183
v -0.459450 8.486088 0.489711
v -0.329937 8.552386 0.518557
v -0.200281 8.593360 0.459297
v -0.120007 8.593360 0.334569
v -0.119776 8.552386 0.192012
v -0.199677 8.486088 0.086080
v -0.329191 8.419790 0.057235
v -0.458847 8.378815 0.116494
v -0.539121 8.378815 0.241223
v -0.539352 8.419790 0.383779
v -0.456432 8.531328 0.484756
v -0.326321 8.594127 0.500530
v -0.203487 8.629144 0.431198
v -0.134849 8.623005 0.303244
v -0.146623 8.578055 0.165542
v -0.234312 8.511462 0.070688
v -0.364422 8.448663 0.054914
v -0.487256 8.413646 0.124246
v -0.555895 8.419785 0.252200
v -0.544121 8.464735 0.389902
v -0.449070 8.575210 0.468339
v -0.325342 8.631457 0.471292
v -0.215303 8.659150 0.396422
v -0.160984 8.647712 0.272326
v -0.183133 8.601511 0.146406
v -0.273290 8.538195 0.066758
v -0.397018 8.481948 0.063805
v -0.507057 8.454255 0.138675
v -0.561376 8.465693 0.262770
v -0.539227 8.511894 0.388690
v -0.439120 8.616078 0.437442
v -0.330232 8.662598 0.429697
v -0.239202 8.682156 0.356131
v -0.200802 8.667281 0.244843
v -0.229699 8.623655 0.138342
v -0.314855 8.567941 0.077307
v -0.423743 8.521421 0.085052
v -0.514773 8.501863 0.158618
v -0.553173 8.516738 0.269905
v -0.524276 8.560364 0.376407
v -0.428079 8.651157 0.384760
v -0.346407 8.683833 0.371257
v -0.282453 8.694922 0.310369
v -0.260646 8.680187 0.225352
v -0.289316 8.645258 0.148681
v -0.357511 8.603476 0.109641
v -0.439184 8.570801 0.123144
v -0.503138 8.559712 0.184033
v -0.524944 8.574446 0.269049
v -0.496275 8.609375 0.345720
v -0.420459 8.689105 0.229396
v 0.653216 8.139398 0.129205
v 0.595444 8.263155 0.187065
v 0.577148 8.339641 0.312828
v 0.605316 8.339641 0.458457
v 0.669189 8.263155 0.568327
v 0.744369 8.139398 0.600471
v 0.802141 8.015640 0.542611
v 0.820437 7.939154 0.416848
v 0.792269 7.939154 0.271219
v 0.728396 8.015640 0.161349
v 0.678811 8.177138 0.130163
v 0.626697 8.294363 0.198453
v 0.615281 8.359730 0.327751
v 0.648923 8.348271 0.468670
v 0.714774 8.264362 0.567383
v 0.787680 8.140055 0.586185
v 0.839794 8.022830 0.517895
v 0.851210 7.957463 0.388597
v 0.817568 7.968922 0.247678
v 0.751717 8.052830 0.148965
v 0.708045 8.212343 0.142628
v 0.663891 8.317338 0.216841
v 0.659389 8.369032 0.342493
v 0.696257 8.347681 0.471589
v 0.760413 8.261439 0.554820
v 0.827352 8.143247 0.560393
v 0.871506 8.038252 0.486180
v 0.876008 7.986558 0.360528
v 0.839140 8.007909 0.231431
v 0.774984 8.094151 0.148201
v 0.742878 8.241922 0.167837
v 0.708661 8.328760 0.241111
v 0.710153 8.365269 0.354008
v 0.746786 8.337501 0.463405
v 0.804567 8.256065 0.527517
v 0.861425 8.152066 0.521855
v 0.895642 8.065227 0.448582
v 0.894149 8.028719 0.335685
v 0.857516 8.056486 0.226287
v 0.799736 8.137922 0.162175
v 0.787107 8.260695 0.210489
v 0.764893 8.321690 0.271371
v 0.770071 8.342389 0.357772
v 0.800662 8.314885 0.436691
v 0.844982 8.249684 0.477983
v 0.886102 8.171690 0.465875
v 0.908315 8.110694 0.404994
v 0.903137 8.089996 0.318592
v 0.872546 8.117500 0.239674
v 0.828227 8.182701 0.198382
v 0.896897 8.249790 0.326520
v -0.742181 7.960792 -0.041048
v -0.686010 8.098035 -0.044299
v -0.579811 8.182855 -0.103701
v -0.464149 8.182855 -0.196564
v -0.383203 8.098035 -0.287418
v -0.367891 7.960792 -0.341559
v -0.424062 7.823550 -0.338308
v -0.530261 7.738729 -0.278907
v -0.645923 7.738729 -0.186043
v -0.726869 7.823550 -0.095190
v -0.758960 7.990607 -0.071212
v -0.695044 8.120605 -0.082890
v -0.586956 8.193095 -0.147569
v -0.475981 8.180387 -0.240544
v -0.404509 8.087336 -0.326301
v -0.399838 7.949483 -0.372085
v -0.463754 7.819485 -0.360407
v -0.571843 7.746995 -0.295728
v -0.682818 7.759703 -0.202753
v -0.754290 7.852755 -0.116996
v -0.766810 8.017610 -0.109403
v -0.699200 8.134045 -0.128183
v -0.595136 8.191373 -0.194254
v -0.494367 8.167695 -0.282379
v -0.435384 8.072055 -0.358898
v -0.440716 7.940986 -0.394583
v -0.508326 7.824550 -0.375804
v -0.612390 7.767223 -0.309733
v -0.713158 7.790901 -0.221607
v -0.772141 7.886540 -0.145088
v -0.765001 8.038374 -0.157251
v -0.699636 8.134675 -0.180368
v -0.606957 8.175161 -0.242433
v -0.522363 8.144369 -0.319741
v -0.478167 8.054059 -0.382763
v -0.491251 7.938727 -0.407425
v -0.556616 7.842426 -0.384309
v -0.649295 7.801940 -0.322243
v -0.733889 7.832733 -0.244935
v -0.778085 7.923042 -0.181914
v -0.750232 8.047155 -0.219159
v -0.696843 8.114797 -0.241399
v -0.626512 8.137751 -0.290867
v -0.566103 8.107250 -0.348669
v -0.538692 8.034944 -0.392725
v -0.554747 7.948452 -0.406207
v -0.608136 7.880810 -0.383967
v -0.678467 7.857856 -0.334499
v -0.738876 7.888357 -0.276697
v -0.766287 7.960663 -0.232642
v -0.695125 8.013996 -0.365787
v 0.589588 8.273777 1.030083
v 0.509370 8.389717 0.983993
v 0.380742 8.461372 1.001927
v 0.252835 8.461372 1.077035
v 0.174507 8.389717 1.180628
v 0.175674 8.273777 1.273137
v 0.255893 8.157838 1.319227
v 0.384521 8.086183 1.301292
v 0.512428 8.086183 1.226185
v 0.590756 8.157838 1.122592
v 0.595136 8.313935 1.050986
v 0.507308 8.423755 1.014284
v 0.378217 8.484992 1.040864
v 0.257170 8.474257 1.120573
v 0.190403 8.395649 1.222965
v 0.203420 8.279194 1.308931
v 0.291247 8.169374 1.345633
v 0.420339 8.108137 1.319053
v 0.541386 8.118872 1.239344
v 0.608153 8.197480 1.136952
v 0.591179 8.351717 1.079380
v 0.501055 8.450079 1.053236
v 0.378414 8.498508 1.086324
v 0.270100 8.478506 1.166005
v 0.217487 8.397711 1.261844
v 0.240670 8.286987 1.337234
v 0.330794 8.188624 1.363378
v 0.453435 8.140195 1.330290
v 0.561748 8.160198 1.250609
v 0.614362 8.240992 1.154770
v 0.577365 8.384229 1.117798
v 0.492379 8.465582 1.102310
v 0.384549 8.499784 1.138137
v 0.295061 8.473771 1.211594
v 0.258097 8.397479 1.294625
v 0.287777 8.300049 1.355513
v 0.372763 8.218696 1.371001
v 0.480593 8.184494 1.335175
v 0.570081 8.210507 1.261717
v 0.607045 8.286799 1.178686
v 0.550799 8.406617 1.171842
v 0.482836 8.463760 1.165819
v 0.402032 8.483151 1.197680
v 0.339251 8.457384 1.255258
v 0.318474 8.396302 1.316557
v 0.347636 8.323235 1.358166
v 0.415599 8.266093 1.364190
v 0.496403 8.246701 1.332328
v 0.559184 8.272468 1.274751
v 0.579961 8.333550 1.213451
v 0.478349 8.404804 1.314614
v 0.102630 8.453432 1.069670
v 0.086069 8.537987 0.948934
v -0.013005 8.590246 0.851699
v -0.156748 8.590246 0.815105
v -0.290256 8.537987 0.853130
v -0.362533 8.453432 0.951251
v -0.345972 8.368876 1.071987
v -0.246898 8.316618 1.169223
v -0.103155 8.316618 1.205817
v 0.030353 8.368876 1.167791
v 0.095268 8.498118 1.075079
v 0.066271 8.578211 0.957327
v -0.039936 8.622872 0.868745
v -0.182784 8.615042 0.843168
v -0.307712 8.557713 0.890367
v -0.367000 8.472782 0.992311
v -0.338003 8.392689 1.110063
v -0.231797 8.348028 1.198646
v -0.088948 8.355857 1.224222
v 0.035979 8.413187 1.177024
v 0.075716 8.541072 1.079772
v 0.036866 8.612809 0.971027
v -0.070221 8.648128 0.895093
v -0.204642 8.633540 0.880976
v -0.315052 8.574616 0.934067
v -0.359279 8.493864 1.034088
v -0.320428 8.422127 1.142833
v -0.213341 8.386808 1.218767
v -0.078920 8.401396 1.232884
v 0.031490 8.460320 1.179793
v 0.041741 8.580183 1.086090
v -0.002131 8.639514 0.993161
v -0.101604 8.664458 0.933464
v -0.218683 8.645486 0.929802
v -0.308647 8.589846 0.983573
v -0.337134 8.518790 1.074239
v -0.293262 8.459459 1.167168
v -0.193789 8.434515 1.226865
v -0.076710 8.453486 1.230527
v 0.013255 8.509126 1.176756
v -0.012990 8.611910 1.097298
v -0.053098 8.653584 1.029659
v -0.131599 8.667727 0.990186
v -0.218508 8.648935 0.993957
v -0.280628 8.604387 1.039531
v -0.294232 8.551099 1.109501
v -0.254124 8.509424 1.177140
v -0.175623 8.495282 1.216613
v -0.088715 8.514074 1.212842
v -0.026595 8.558622 1.167268
v -0.163963 8.637536 1.144060
v -0.115418 7.412199 -0.484310
v -0.063994 7.545293 -0.524840
v 0.058711 7.627550 -0.538198
v 0.205829 7.627550 -0.519283
v 0.321164 7.545293 -0.475318
v 0.360663 7.412199 -0.423098
v 0.309238 7.279104 -0.382568
v 0.186533 7.196847 -0.369209
v 0.039416 7.196847 -0.388125
v -0.075919 7.279104 -0.432089
v -0.103959 7.418881 -0.527949
v -0.041627 7.544950 -0.564588
v 0.085281 7.615249 -0.573171
v 0.228291 7.602925 -0.550418
v 0.332776 7.512686 -0.505022
v 0.358829 7.379000 -0.454320
v 0.296496 7.252931 -0.417681
v 0.169588 7.182633 -0.409099
v 0.026579 7.194956 -0.431851
v -0.077907 7.285195 -0.477248
v -0.080731 7.422837 -0.569109
v -0.011721 7.535753 -0.600231
v 0.112280 7.591348 -0.603979
v 0.243908 7.568385 -0.578922
v 0.332885 7.475637 -0.534630
v 0.345226 7.348529 -0.488022
v 0.276216 7.235612 -0.456900
v 0.152215 7.180018 -0.453152
v 0.020587 7.202980 -0.478209
v -0.068390 7.295729 -0.522501
v -0.044308 7.420742 -0.606430
v 0.024783 7.514132 -0.630625
v 0.136761 7.553395 -0.630134
v 0.248853 7.523533 -0.605145
v 0.318244 7.435953 -0.565202
v 0.318429 7.324107 -0.525563
v 0.249337 7.230717 -0.501368
v 0.137359 7.191454 -0.501858
v 0.025267 7.221316 -0.526848
v -0.044124 7.308896 -0.566790
v 0.010348 7.407027 -0.637290
v 0.068389 7.472624 -0.653062
v 0.154498 7.494884 -0.649875
v 0.235785 7.465305 -0.628947
v 0.281200 7.395185 -0.598271
v 0.273397 7.311307 -0.569564
v 0.215357 7.245710 -0.553792
v 0.129248 7.223449 -0.556979
v 0.047961 7.253028 -0.577908
v 0.002545 7.323149 -0.608584
v 0.150295 7.335965 -0.668931
v -0.346837 8.202678 1.246846
v -0.334077 8.324988 1.163908
v -0.394470 8.400580 1.051481
v -0.504949 8.400580 0.952509
v -0.623315 8.324988 0.904795
v -0.704356 8.202678 0.926564
v -0.717117 8.080369 1.009502
v -0.656724 8.004777 1.121929
v -0.546244 8.004777 1.220901
v -0.427878 8.080369 1.268615
v -0.367272 8.240934 1.260963
v -0.365415 8.356788 1.173239
v -0.433580 8.421390 1.062328
v -0.545732 8.410065 0.970595
v -0.659032 8.327138 0.933080
v -0.730203 8.204284 0.964110
v -0.732061 8.088430 1.051835
v -0.663895 8.023828 1.162745
v -0.551743 8.035153 1.254478
v -0.438443 8.118080 1.291994
v -0.397597 8.276683 1.268153
v -0.405832 8.380450 1.180714
v -0.477491 8.431540 1.077100
v -0.585203 8.410438 0.996888
v -0.687825 8.325205 0.970717
v -0.746160 8.208396 1.008583
v -0.737926 8.104629 1.096022
v -0.666267 8.053539 1.199636
v -0.558555 8.074641 1.279848
v -0.455932 8.159874 1.306019
v -0.440167 8.306873 1.268665
v -0.456001 8.392696 1.188262
v -0.524935 8.428777 1.098669
v -0.620640 8.401335 1.034106
v -0.706558 8.320851 1.019234
v -0.749873 8.218068 1.059735
v -0.734039 8.132245 1.140137
v -0.665105 8.096164 1.229730
v -0.569400 8.123606 1.294293
v -0.483482 8.204090 1.309165
v -0.500915 8.326383 1.261130
v -0.519179 8.386665 1.198257
v -0.575251 8.407121 1.132243
v -0.647712 8.379939 1.088301
v -0.708886 8.315500 1.083217
v -0.735406 8.238419 1.118932
v -0.717142 8.178137 1.181805
v -0.661071 8.157680 1.247820
v -0.588609 8.184863 1.291761
v -0.527435 8.249301 1.296845
v -0.658658 8.317279 1.235236
vt 0.392873 0.929177
vt 0.284658 0.927456
vt 0.346867 0.958223
vt 0.221881 0.891812
vt 0.171557 0.843700
vt 0.255459 0.886188
vt 0.327755 0.921819
vt 0.190369 0.840755
vt 0.146366 0.787796
vt 0.407711 0.977478
vt 0.500000 0.987482
vt 0.465086 0.985270
vt 0.113215 0.704846
vt 0.120664 0.739735
vt 0.109235 0.710175
vt 0.358183 0.183914
vt 0.500000 0.179992
vt 0.073078 0.456354
vt 0.147392 0.258688
vt 0.213987 0.225198
vt 0.028859 0.385042
vt 0.054321 0.346222
vt 0.083248 0.475499
vt 0.082509 0.510891
vt 0.086148 0.447849
vt 0.098089 0.422159
vt 0.086964 0.428946
vt 0.219387 0.395359
vt 0.499061 0.394081
vt 0.146784 0.411319
vt 0.499528 0.601374
vt 0.499885 0.754897
vt 0.252912 0.729270
vt 0.300978 0.200906
vt 0.355681 0.180244
vt 0.500000 0.170943
vt 0.209485 0.262893
vt 0.241954 0.210408
vt 0.284607 0.167693
vt 0.336012 0.136665
vt 0.499849 0.111376
vt 0.174514 0.303162
vt 0.198283 0.249923
vt 0.228239 0.193449
vt 0.262245 0.139404
vt 0.309434 0.095621
vt 0.499987 0.049443
vt 0.130217 0.380130
vt 0.156775 0.284559
vt 0.173465 0.226221
vt 0.193821 0.161042
vt 0.230712 0.099113
vt 0.285575 0.053750
vt 0.500930 0.007220
vt 0.100478 0.390989
vt 0.087693 0.267019
vt 0.110741 0.198552
vt 0.153145 0.141199
vt 0.205393 0.081956
vt 0.271240 0.037335
vt 0.499839 0.000424
vt 0.080444 0.418648
vt 0.043012 0.322818
vt 0.071332 0.271195
vt 0.110096 0.214064
vt 0.165103 0.148758
vt 0.239052 0.109997
vt 0.499964 0.074562
vt 0.235309 0.585852
vt 0.155501 0.575293
vt 0.168677 0.703557
vt 0.123177 0.758669
vt 0.091276 0.561651
vt 0.044003 0.547306
vt 0.161155 0.816186
vt 0.044006 0.445715
vt 0.020804 0.466115
vt 0.074211 0.501162
vt 0.227578 0.866840
vt 0.306052 0.906757
vt 0.407766 0.945779
vt 0.500037 0.953761
vt 0.464128 0.951526
vt 0.052943 0.629859
vt 0.100004 0.667807
vt 0.022727 0.539976
vt 0.036117 0.600928
vt 0.153588 0.346146
vt 0.135562 0.334030
vt 0.091468 0.337730
vt 0.043872 0.375826
vt 0.033113 0.488461
vt 0.113267 0.746133
vt 0.065443 0.693411
vt 0.061187 0.648058
vt 0.185691 0.793939
vt 0.500016 0.862564
vt 0.457179 0.936217
vt 0.500413 0.939149
vt 0.271654 0.827958
vt 0.469294 0.179037
vt 0.437445 0.859710
vt 0.407334 0.078319
vt 0.423629 0.002477
vt 0.468213 0.172954
vt 0.404379 0.599573
vt 0.390584 0.390145
vt 0.428942 0.011416
vt 0.438090 0.055432
vt 0.455901 0.113260
vt 0.423406 0.754349
vt 0.415899 0.180545
vt 0.347973 0.749782
vt 0.413624 0.174915
vt 0.396204 0.117831
vt 0.347967 0.012159
vt 0.354243 0.022463
vt 0.370615 0.065568
vt 0.324518 0.086284
vt 0.308573 0.390045
vt 0.327241 0.598168
vt 0.366994 0.852140
vt 0.291084 0.944398
vt 0.500000 1.000000
vt 0.465598 0.998240
vt 0.409019 0.989292
vt 0.351700 0.970490
vt 0.208291 0.867279
vt 0.160127 0.817106
vt 0.273740 0.907849
vt 0.341124 0.944247
vt 0.133856 0.771005
vt 0.500000 0.973757
vt 0.464347 0.971847
vt 0.410781 0.965513
vt 0.500000 0.154454
vt 0.465825 0.155057
vt 0.409246 0.157269
vt 0.348573 0.165212
vt 0.296145 0.191505
vt 0.251279 0.228707
vt 0.298647 0.197588
vt 0.352610 0.173356
vt 0.410952 0.166519
vt 0.467076 0.163603
vt 0.500000 0.162447
vt 0.086280 0.303135
vt 0.499422 0.197044
vt 0.031122 0.423227
vt 0.394124 0.196083
vt 0.308402 0.204762
vt 0.090925 0.433169
vt 0.256746 0.053867
vt 0.185682 0.099537
vt 0.060542 0.281549
vt 0.090008 0.401671
vt 0.132372 0.167010
vt 0.091522 0.224128
vt 0.499994 0.017759
vt 0.067767 0.351976
vt 0.415421 0.019282
vt 0.336203 0.027568
vt 0.106676 0.413914
vt 0.122083 0.266758
vt 0.111850 0.377868
vt 0.217933 0.077748
vt 0.166288 0.133418
vt 0.132255 0.197409
vt 0.500444 0.000000
vt 0.281366 0.038601
vt 0.115604 0.328276
vt 0.430351 0.001885
vt 0.355487 0.011991
vt 0.104742 0.676693
vt 0.045717 0.536917
vt 0.067437 0.580512
vt 0.085543 0.617427
vt 0.079014 0.535988
vt 0.082452 0.569007
vt 0.089844 0.602087
vt 0.083646 0.537184
vt 0.085977 0.562271
vt 0.032355 0.490128
vt 0.053508 0.522655
vt 0.016320 0.451167
vt 0.012908 0.431258
vt 0.024906 0.420148
vt 0.012965 0.440810
vt 0.014898 0.425075
vt 0.021210 0.489927
vt 0.042250 0.523912
vt 0.004208 0.458758
vt 0.000000 0.435833
vt 0.014671 0.425276
vt 0.000227 0.444329
vt 0.003867 0.430404
vt 0.024338 0.490028
vt 0.040032 0.524666
vt 0.007222 0.463785
vt 0.005800 0.442419
vt 0.012282 0.435582
vt 0.002786 0.449156
vt 0.008871 0.437392
vt 0.037928 0.490078
vt 0.031787 0.470321
vt 0.022177 0.451569
vt 0.011145 0.459210
vt 0.021494 0.448653
vt 0.500000 0.144500
vt 0.463607 0.144600
vt 0.407483 0.146410
vt 0.346128 0.156414
vt 0.133454 0.790737
vt 0.204137 0.843553
vt 0.292676 0.181601
vt 0.094479 0.732098
vt 0.091229 0.681859
vt 0.247981 0.221568
vt 0.501740 0.913544
vt 0.286610 0.880640
vt 0.445898 0.909758
vt 0.379327 0.902546
vt 0.094507 0.648539
vt 0.096554 0.627927
vt 0.022575 0.464590
vt 0.027124 0.472231
vt 0.030365 0.482034
vt 0.037985 0.493547
vt 0.039179 0.490078
vt 0.008018 0.455390
vt 0.020471 0.444832
vt 0.013249 0.467958
vt 0.010463 0.447798
vt 0.021836 0.453529
vt 0.024053 0.464338
vt 0.023598 0.456445
vt 0.034744 0.474192
vt 0.035995 0.492340
vt 0.047026 0.468159
vt 0.059934 0.491838
vt 0.042477 0.453077
vt 0.047140 0.447798
vt 0.053793 0.443274
vt 0.080689 0.470069
vt 0.081428 0.450161
vt 0.084385 0.514109
vt 0.083475 0.481783
vt 0.080348 0.458305
vt 0.084328 0.539547
vt 0.606716 0.928968
vt 0.715342 0.927456
vt 0.653133 0.958223
vt 0.778119 0.891812
vt 0.828443 0.843700
vt 0.744591 0.886173
vt 0.672327 0.921798
vt 0.809683 0.840732
vt 0.853634 0.787796
vt 0.592289 0.977478
vt 0.534914 0.985270
vt 0.886785 0.704846
vt 0.879336 0.739735
vt 0.890765 0.710175
vt 0.641817 0.183914
vt 0.926915 0.456250
vt 0.852311 0.259028
vt 0.785055 0.224832
vt 0.971135 0.384439
vt 0.944986 0.345845
vt 0.916752 0.475499
vt 0.917491 0.510891
vt 0.913852 0.447849
vt 0.901911 0.422159
vt 0.912928 0.430206
vt 0.781359 0.395407
vt 0.854231 0.412397
vt 0.748034 0.729461
vt 0.699022 0.200906
vt 0.644319 0.180244
vt 0.790515 0.262893
vt 0.758046 0.210408
vt 0.715363 0.167656
vt 0.663566 0.136516
vt 0.825486 0.303162
vt 0.801717 0.249923
vt 0.771809 0.193488
vt 0.737410 0.138995
vt 0.688770 0.094897
vt 0.869783 0.380130
vt 0.843231 0.284566
vt 0.826922 0.226668
vt 0.806568 0.161515
vt 0.770010 0.100084
vt 0.713720 0.053429
vt 0.899522 0.390989
vt 0.912227 0.266908
vt 0.889920 0.199471
vt 0.846310 0.140548
vt 0.793509 0.081016
vt 0.728796 0.037350
vt 0.919539 0.418512
vt 0.957012 0.322864
vt 0.927867 0.269552
vt 0.890370 0.214829
vt 0.835324 0.149441
vt 0.760341 0.109651
vt 0.767049 0.584674
vt 0.846990 0.574398
vt 0.832942 0.703602
vt 0.876827 0.758649
vt 0.909408 0.561182
vt 0.955966 0.547642
vt 0.839166 0.815981
vt 0.955532 0.446513
vt 0.979358 0.465204
vt 0.925787 0.501136
vt 0.773021 0.866830
vt 0.694536 0.906800
vt 0.592218 0.945797
vt 0.535875 0.951532
vt 0.946950 0.631483
vt 0.900758 0.668954
vt 0.977450 0.540550
vt 0.963748 0.601878
vt 0.846412 0.346146
vt 0.864438 0.334030
vt 0.908462 0.337598
vt 0.955976 0.375158
vt 0.966885 0.487935
vt 0.887930 0.747625
vt 0.934634 0.694700
vt 0.938567 0.648930
vt 0.814748 0.795323
vt 0.542242 0.935911
vt 0.726226 0.829617
vt 0.530706 0.179037
vt 0.562091 0.860623
vt 0.592052 0.078209
vt 0.576844 0.002525
vt 0.531787 0.172954
vt 0.594197 0.599973
vt 0.607443 0.389402
vt 0.572222 0.011547
vt 0.561595 0.055435
vt 0.543803 0.113301
vt 0.575850 0.754456
vt 0.584101 0.180545
vt 0.652470 0.749972
vt 0.586376 0.174915
vt 0.603093 0.117908
vt 0.652940 0.012381
vt 0.644447 0.021984
vt 0.627169 0.065543
vt 0.674896 0.086029
vt 0.690029 0.388909
vt 0.671900 0.597041
vt 0.632095 0.853416
vt 0.708916 0.944398
vt 0.534402 0.998240
vt 0.590981 0.989292
vt 0.648300 0.970490
vt 0.791709 0.867279
vt 0.839873 0.817106
vt 0.726260 0.907849
vt 0.658876 0.944247
vt 0.866144 0.771005
vt 0.535653 0.971847
vt 0.589219 0.965513
vt 0.534175 0.155057
vt 0.590754 0.157269
vt 0.651427 0.165212
vt 0.703855 0.191505
vt 0.748721 0.228707
vt 0.701353 0.197588
vt 0.647390 0.173356
vt 0.589048 0.166519
vt 0.532924 0.163603
vt 0.913696 0.304532
vt 0.968777 0.422435
vt 0.604376 0.196400
vt 0.691241 0.204709
vt 0.909075 0.433169
vt 0.744658 0.054684
vt 0.814676 0.099885
vt 0.939703 0.282087
vt 0.909988 0.401651
vt 0.866801 0.165835
vt 0.908260 0.223769
vt 0.932108 0.351682
vt 0.585065 0.019349
vt 0.664427 0.027797
vt 0.893324 0.413914
vt 0.877893 0.266718
vt 0.888150 0.377868
vt 0.782212 0.078119
vt 0.834235 0.134024
vt 0.868231 0.198065
vt 0.718154 0.038358
vt 0.884403 0.328265
vt 0.570444 0.001965
vt 0.644434 0.011906
vt 0.895258 0.676693
vt 0.954272 0.537118
vt 0.932535 0.580732
vt 0.914451 0.617457
vt 0.920986 0.535990
vt 0.917548 0.569007
vt 0.910156 0.602087
vt 0.916354 0.537184
vt 0.914023 0.562271
vt 0.967645 0.490128
vt 0.946492 0.522655
vt 0.983680 0.451167
vt 0.987092 0.431258
vt 0.975094 0.420148
vt 0.987035 0.440810
vt 0.985102 0.425075
vt 0.978790 0.489927
vt 0.957750 0.523912
vt 0.995792 0.458758
vt 1.000000 0.435833
vt 0.985329 0.425276
vt 0.999773 0.444329
vt 0.996133 0.430404
vt 0.975662 0.490028
vt 0.959968 0.524666
vt 0.992778 0.463785
vt 0.994200 0.442419
vt 0.987718 0.435582
vt 0.997214 0.449156
vt 0.991129 0.437392
vt 0.962072 0.490078
vt 0.968213 0.470321
vt 0.977823 0.451569
vt 0.988855 0.459210
vt 0.978506 0.448653
vt 0.536393 0.144600
vt 0.592517 0.146410
vt 0.653872 0.156414
vt 0.867241 0.792044
vt 0.796872 0.844281
vt 0.707324 0.181601
vt 0.905776 0.732043
vt 0.908837 0.681646
vt 0.752019 0.221568
vt 0.713094 0.880822
vt 0.554622 0.910057
vt 0.620775 0.902527
vt 0.905493 0.648539
vt 0.903446 0.627927
vt 0.977425 0.464590
vt 0.972876 0.472231
vt 0.969635 0.482034
vt 0.962015 0.493547
vt 0.960821 0.490078
vt 0.991982 0.455390
vt 0.979529 0.444832
vt 0.986751 0.467958
vt 0.989537 0.447798
vt 0.978164 0.453529
vt 0.975947 0.464338
vt 0.976402 0.456445
vt 0.965256 0.474192
vt 0.964005 0.492340
vt 0.952974 0.468159
vt 0.940066 0.491838
vt 0.957523 0.453077
vt 0.952860 0.447798
vt 0.946207 0.443274
vt 0.919311 0.470069
vt 0.918572 0.450161
vt 0.915615 0.514109
vt 0.916525 0.481783
vt 0.919652 0.458305
vt 0.915672 0.539547
vt 0.000000 0.000000
vt 0.100000 0.000000
vt 0.200000 0.000000
vt 0.300000 0.000000
vt 0.400000 0.000000
vt 0.500000 0.000000
vt 0.600000 0.000000
vt 0.700000 0.000000
vt 0.800000 0.000000
vt 0.900000 0.000000
vt 0.000000 0.200000
vt 0.100000 0.200000
vt 0.200000 0.200000
vt 0.300000 0.200000
vt 0.400000 0.200000
vt 0.500000 0.200000
vt 0.600000 0.200000
vt 0.700000 0.200000
vt 0.800000 0.200000
vt 0.900000 0.200000
vt 0.000000 0.400000
vt 0.100000 0.400000
vt 0.200000 0.400000
vt 0.300000 0.400000
vt 0.400000 0.400000
vt 0.500000 0.400000
vt 0.600000 0.400000
vt 0.700000 0.400000
vt 0.800000 0.400000
vt 0.900000 0.400000
vt 0.000000 0.600000
vt 0.100000 0.600000
vt 0.200000 0.600000
vt 0.300000 0.600000
vt 0.400000 0.600000
vt 0.500000 0.600000
vt 0.600000 0.600000
vt 0.700000 0.600000
vt 0.800000 0.600000
vt 0.900000 0.600000
vt 0.000000 0.800000
vt 0.100000 0.800000
vt 0.200000 0.800000
vt 0.300000 0.800000
vt 0.400000 0.800000
vt 0.500000 0.800000
vt 0.600000 0.800000
vt 0.700000 0.800000
vt 0.800000 0.800000
vt 0.900000 0.800000
vt 0.500000 1.000000
vt 0.000000 0.000000
vt 0.100000 0.000000
vt 0.200000 0.000000
vt 0.300000 0.000000
vt 0.400000 0.000000
vt 0.500000 0.000000
vt 0.600000 0.000000
vt 0.700000 0.000000
vt 0.800000 0.000000
vt 0.900000 0.000000
vt 0.000000 0.200000
vt 0.100000 0.200000
vt 0.200000 0.200000
vt 0.300000 0.200000
vt 0.400000 0.200000
vt 0.500000 0.200000
vt 0.600000 0.200000
vt 0.700000 0.200000
vt 0.800000 0.200000
vt 0.900000 0.200000
vt 0.000000 0.400000
vt 0.100000 0.400000
vt 0.200000 0.400000
vt 0.300000 0.400000
vt 0.400000 0.400000
vt 0.500000 0.400000
vt 0.600000 0.400000
vt 0.700000 0.400000
vt 0.800000 0.400000
vt 0.900000 0.400000
vt 0.000000 0.600000
vt 0.100000 0.600000
vt 0.200000 0.600000
vt 0.300000 0.600000
vt 0.400000 0.600000
vt 0.500000 0.600000
vt 0.600000 0.600000
vt 0.700000 0.600000
vt 0.800000 0.600000
vt 0.900000 0.600000
vt 0.000000 0.800000
vt 0.100000 0.800000
vt 0.200000 0.800000
vt 0.300000 0.800000
vt 0.400000 0.800000
vt 0.500000 0.800000
vt 0.600000 0.800000
vt 0.700000 0.800000
vt 0.800000 0.800000
vt 0.900000 0.800000
vt 0.500000 1.000000
vt 0.000000 0.000000
vt 0.100000 0.000000
vt 0.200000 0.000000
vt 0.300000 0.000000
vt 0.400000 0.000000
vt 0.500000 0.000000
vt 0.600000 0.000000
vt 0.700000 0.000000
vt 0.800000 0.000000
vt 0.900000 0.000000
vt 0.000000 0.200000
vt 0.100000 0.200000
vt 0.200000 0.200000
vt 0.300000 0.200000
vt 0.400000 0.200000
vt 0.500000 0.200000
vt 0.600000 0.200000
vt 0.700000 0.200000
vt 0.800000 0.200000
vt 0.900000 0.200000
vt 0.000000 0.400000
vt 0.100000 0.400000
vt 0.200000 0.400000
vt 0.300000 0.400000
vt 0.400000 0.400000
vt 0.500000 0.400000
vt 0.600000 0.400000
vt 0.700000 0.400000
vt 0.800000 0.400000
vt 0.900000 0.400000
vt 0.000000 0.600000
vt 0.100000 0.600000
vt 0.200000 0.600000
vt 0.300000 0.600000
vt 0.400000 0.600000
vt 0.500000 0.600000
vt 0.600000 0.600000
vt 0.700000 0.600000
vt 0.800000 0.600000
vt 0.900000 0.600000
vt 0.000000 0.800000
vt 0.100000 0.800000
vt 0.200000 0.800000
vt 0.300000 0.800000
vt 0.400000 0.800000
vt 0.500000 0.800000
vt 0.600000 0.800000
vt 0.700000 0.800000
vt 0.800000 0.800000
vt 0.900000 0.800000
vt 0.500000 1.000000
vt 0.000000 0.000000
vt 0.100000 0.000000
vt 0.200000 0.000000
vt 0.300000 0.000000
vt 0.400000 0.000000
vt 0.500000 0.000000
vt 0.600000 0.000000
vt 0.700000 0.000000
vt 0.800000 0.000000
vt 0.900000 0.000000
vt 0.000000 0.200000
vt 0.100000 0.200000
vt 0.200000 0.200000
vt 0.300000 0.200000
vt 0.400000 0.200000
vt 0.500000 0.200000
vt 0.600000 0.200000
vt 0.700000 0.200000
vt 0.800000 0.200000
vt 0.900000 0.200000
vt 0.000000 0.400000
vt 0.100000 0.400000
vt 0.200000 0.400000
vt 0.300000 0.400000
vt 0.400000 0.400000
vt 0.500000 0.400000
vt 0.600000 0.400000
vt 0.700000 0.400000
vt 0.800000 0.400000
vt 0.900000 0.400000
vt 0.000000 0.600000
vt 0.100000 0.600000
vt 0.200000 0.600000
vt 0.300000 0.600000
vt 0.400000 0.600000
vt 0.500000 0.600000
vt 0.600000 0.600000
vt 0.700000 0.600000
vt 0.800000 0.600000
vt 0.900000 0.600000
vt 0.000000 0.800000
vt 0.100000 0.800000
vt 0.200000 0.800000
vt 0.300000 0.800000
vt 0.400000 0.800000
vt 0.500000 0.800000
vt 0.600000 0.800000
vt 0.700000 0.800000
vt 0.800000 0.800000
vt 0.900000 0.800000
vt 0.500000 1.000000
vt 0.000000 0.000000
vt 0.100000 0.000000
vt 0.200000 0.000000
vt 0.300000 0.000000
vt 0.400000 0.000000
vt 0.500000 0.000000
vt 0.600000 0.000000
vt 0.700000 0.000000
vt 0.800000 0.000000
vt 0.900000 0.000000
vt 0.000000 0.200000
vt 0.100000 0.200000
vt 0.200000 0.200000
vt 0.300000 0.200000
vt 0.400000 0.200000
vt 0.500000 0.200000
vt 0.600000 0.200000
vt 0.700000 0.200000
vt 0.800000 0.200000
vt 0.900000 0.200000
vt 0.000000 0.400000
vt 0.100000 0.400000
vt 0.200000 0.400000
vt 0.300000 0.400000
vt 0.400000 0.400000
vt 0.500000 0.400000
vt 0.600000 0.400000
vt 0.700000 0.400000
vt 0.800000 0.400000
vt 0.900000 0.400000
vt 0.000000 0.600000
vt 0.100000 0.600000
vt 0.200000 0.600000
vt 0.300000 0.600000
vt 0.400000 0.600000
vt 0.500000 0.600000
vt 0.600000 0.600000
vt 0.700000 0.600000
vt 0.800000 0.600000
vt 0.900000 0.600000
vt 0.000000 0.800000
vt 0.100000 0.800000
vt 0.200000 0.800000
vt 0.300000 0.800000
vt 0.400000 0.800000
vt 0.500000 0.800000
vt 0.600000 0.800000
vt 0.700000 0.800000
vt 0.800000 0.800000
vt 0.900000 0.800000
vt 0.500000 1.000000
vt 0.000000 0.000000
vt 0.100000 0.000000
vt 0.200000 0.000000
vt 0.300000 0.000000
vt 0.400000 0.000000
vt 0.500000 0.000000
vt 0.600000 0.000000
vt 0.700000 0.000000
vt 0.800000 0.000000
vt 0.900000 0.000000
vt 0.000000 0.200000
vt 0.100000 0.200000
vt 0.200000 0.200000
vt 0.300000 0.200000
vt 0.400000 0.200000
vt 0.500000 0.200000
vt 0.600000 0.200000
vt 0.700000 0.200000
vt 0.800000 0.200000
vt 0.900000 0.200000
vt 0.000000 0.400000
vt 0.100000 0.400000
vt 0.200000 0.400000
vt 0.300000 0.400000
vt 0.400000 0.400000
vt 0.500000 0.400000
vt 0.600000 0.400000
vt 0.700000 0.400000
vt 0.800000 0.400000
vt 0.900000 0.400000
vt 0.000000 0.600000
vt 0.100000 0.600000
vt 0.200000 0.600000
vt 0.300000 0.600000
vt 0.400000 0.600000
vt 0.500000 0.600000
vt 0.600000 0.600000
vt 0.700000 0.600000
vt 0.800000 0.600000
vt 0.900000 0.600000
vt 0.000000 0.800000
vt 0.100000 0.800000
vt 0.200000 0.800000
vt 0.300000 0.800000
vt 0.400000 0.800000
vt 0.500000 0.800000
vt 0.600000 0.800000
vt 0.700000 0.800000
vt 0.800000 0.800000
vt 0.900000 0.800000
vt 0.500000 1.000000
vt 0.000000 0.000000
vt 0.100000 0.000000
vt 0.200000 0.000000
vt 0.300000 0.000000
vt 0.400000 0.000000
vt 0.500000 0.000000
vt 0.600000 0.000000
vt 0.700000 0.000000
vt 0.800000 0.000000
vt 0.900000 0.000000
vt 0.000000 0.200000
vt 0.100000 0.200000
vt 0.200000 0.200000
vt 0.300000 0.200000
vt 0.400000 0.200000
vt 0.500000 0.200000
vt 0.600000 0.200000
vt 0.700000 0.200000
vt 0.800000 0.200000
vt 0.900000 0.200000
vt 0.000000 0.400000
vt 0.100000 0.400000
vt 0.200000 0.400000
vt 0.300000 0.400000
vt 0.400000 0.400000
vt 0.500000 0.400000
vt 0.600000 0.400000
vt 0.700000 0.400000
vt 0.800000 0.400000
vt 0.900000 0.400000
vt 0.000000 0.600000
vt 0.100000 0.600000
vt 0.200000 0.600000
vt 0.300000 0.600000
vt 0.400000 0.600000
vt 0.500000 0.600000
vt 0.600000 0.600000
vt 0.700000 0.600000
vt 0.800000 0.600000
vt 0.900000 0.600000
vt 0.000000 0.800000
vt 0.100000 0.800000
vt 0.200000 0.800000
vt 0.300000 0.800000
vt 0.400000 0.800000
vt 0.500000 0.800000
vt 0.600000 0.800000
vt 0.700000 0.800000
vt 0.800000 0.800000
vt 0.900000 0.800000
vt 0.500000 1.000000
vt 0.000000 0.000000
vt 0.100000 0.000000
vt 0.200000 0.000000
vt 0.300000 0.000000
vt 0.400000 0.000000
vt 0.500000 0.000000
vt 0.600000 0.000000
vt 0.700000 0.000000
vt 0.800000 0.000000
vt 0.900000 0.000000
vt 0.000000 0.200000
vt 0.100000 0.200000
vt 0.200000 0.200000
vt 0.300000 0.200000
vt 0.400000 0.200000
vt 0.500000 0.200000
vt 0.600000 0.200000
vt 0.700000 0.200000
vt 0.800000 0.200000
vt 0.900000 0.200000
vt 0.000000 0.400000
vt 0.100000 0.400000
vt 0.200000 0.400000
vt 0.300000 0.400000
vt 0.400000 0.400000
vt 0.500000 0.400000
vt 0.600000 0.400000
vt 0.700000 0.400000
vt 0.800000 0.400000
vt 0.900000 0.400000
vt 0.000000 0.600000
vt 0.100000 0.600000
vt 0.200000 0.600000
vt 0.300000 0.600000
vt 0.400000 0.600000
vt 0.500000 0.600000
vt 0.600000 0.600000
vt 0.700000 0.600000
vt 0.800000 0.600000
vt 0.900000 0.600000
vt 0.000000 0.800000
vt 0.100000 0.800000
vt 0.200000 0.800000
vt 0.300000 0.800000
vt 0.400000 0.800000
vt 0.500000 0.800000
vt 0.600000 0.800000
vt 0.700000 0.800000
vt 0.800000 0.800000
vt 0.900000 0.800000
vt 0.500000 1.000000
vt 0.000000 0.000000
vt 0.100000 0.000000
vt 0.200000 0.000000
vt 0.300000 0.000000
vt 0.400000 0.000000
vt 0.500000 0.000000
vt 0.600000 0.000000
vt 0.700000 0.000000
vt 0.800000 0.000000
vt 0.900000 0.000000
vt 0.000000 0.200000
vt 0.100000 0.200000
vt 0.200000 0.200000
vt 0.300000 0.200000
vt 0.400000 0.200000
vt 0.500000 0.200000
vt 0.600000 0.200000
vt 0.700000 0.200000
vt 0.800000 0.200000
vt 0.900000 0.200000
vt 0.000000 0.400000
vt 0.100000 0.400000
vt 0.200000 0.400000
vt 0.300000 0.400000
vt 0.400000 0.400000
vt 0.500000 0.400000
vt 0.600000 0.400000
vt 0.700000 0.400000
vt 0.800000 0.400000
vt 0.900000 0.400000
vt 0.000000 0.600000
vt 0.100000 0.600000
vt 0.200000 0.600000
vt 0.300000 0.600000
vt 0.400000 0.600000
vt 0.500000 0.600000
vt 0.600000 0.600000
vt 0.700000 0.600000
vt 0.800000 0.600000
vt 0.900000 0.600000
vt 0.000000 0.800000
vt 0.100000 0.800000
vt 0.200000 0.800000
vt 0.300000 0.800000
vt 0.400000 0.800000
vt 0.500000 0.800000
vt 0.600000 0.800000
vt 0.700000 0.800000
vt 0.800000 0.800000
vt 0.900000 0.800000
vt 0.500000 1.000000
vt 0.000000 0.000000
vt 0.100000 0.000000
vt 0.200000 0.000000
vt 0.300000 0.000000
vt 0.400000 0.000000
vt 0.500000 0.000000
vt 0.600000 0.000000
vt 0.700000 0.000000
vt 0.800000 0.000000
vt 0.900000 0.000000
vt 0.000000 0.200000
vt 0.100000 0.200000
vt 0.200000 0.200000
vt 0.300000 0.200000
vt 0.400000 0.200000
vt 0.500000 0.200000
vt 0.600000 0.200000
vt 0.700000 0.200000
vt 0.800000 0.200000
vt 0.900000 0.200000
vt 0.000000 0.400000
vt 0.100000 0.400000
vt 0.200000 0.400000
vt 0.300000 0.400000
vt 0.400000 0.400000
vt 0.500000 0.400000
vt 0.600000 0.400000
vt 0.700000 0.400000
vt 0.800000 0.400000
vt 0.900000 0.400000
vt 0.000000 0.600000
vt 0.100000 0.600000
vt 0.200000 0.600000
vt 0.300000 0.600000
vt 0.400000 0.600000
vt 0.500000 0.600000
vt 0.600000 0.600000
vt 0.700000 0.600000
vt 0.800000 0.600000
vt 0.900000 0.600000
vt 0.000000 0.800000
vt 0.100000 0.800000
vt 0.200000 0.800000
vt 0.300000 0.800000
vt 0.400000 0.800000
vt 0.500000 0.800000
vt 0.600000 0.800000
vt 0.700000 0.800000
vt 0.800000 0.800000
vt 0.900000 0.800000
vt 0.500000 1.000000
vt 0.000000 0.000000
vt 0.100000 0.000000
vt 0.200000 0.000000
vt 0.300000 0.000000
vt 0.400000 0.000000
vt 0.500000 0.000000
vt 0.600000 0.000000
vt 0.700000 0.000000
vt 0.800000 0.000000
vt 0.900000 0.000000
vt 0.000000 0.200000
vt 0.100000 0.200000
vt 0.200000 0.200000
vt 0.300000 0.200000
vt 0.400000 0.200000
vt 0.500000 0.200000
vt 0.600000 0.200000
vt 0.700000 0.200000
vt 0.800000 0.200000
vt 0.900000 0.200000
vt 0.000000 0.400000
vt 0.100000 0.400000
vt 0.200000 0.400000
vt 0.300000 0.400000
vt 0.400000 0.400000
vt 0.500000 0.400000
vt 0.600000 0.400000
vt 0.700000 0.400000
vt 0.800000 0.400000
vt 0.900000 0.400000
vt 0.000000 0.600000
vt 0.100000 0.600000
vt 0.200000 0.600000
vt 0.300000 0.600000
vt 0.400000 0.600000
vt 0.500000 0.600000
vt 0.600000 0.600000
vt 0.700000 0.600000
vt 0.800000 0.600000
vt 0.900000 0.600000
vt 0.000000 0.800000
vt 0.100000 0.800000
vt 0.200000 0.800000
vt 0.300000 0.800000
vt 0.400000 0.800000
vt 0.500000 0.800000
vt 0.600000 0.800000
vt 0.700000 0.800000
vt 0.800000 0.800000
vt 0.900000 0.800000
vt 0.500000 1.000000
vt 0.000000 0.000000
vt 0.100000 0.000000
vt 0.200000 0.000000
vt 0.300000 0.000000
vt 0.400000 0.000000
vt 0.500000 0.000000
vt 0.600000 0.000000
vt 0.700000 0.000000
vt 0.800000 0.000000
vt 0.900000 0.000000
vt 0.000000 0.200000
vt 0.100000 0.200000
vt 0.200000 0.200000
vt 0.300000 0.200000
vt 0.400000 0.200000
vt 0.500000 0.200000
vt 0.600000 0.200000
vt 0.700000 0.200000
vt 0.800000 0.200000
vt 0.900000 0.200000
vt 0.000000 0.400000
vt 0.100000 0.400000
vt 0.200000 0.400000
vt 0.300000 0.400000
vt 0.400000 0.400000
vt 0.500000 0.400000
vt 0.600000 0.400000
vt 0.700000 0.400000
vt 0.800000 0.400000
vt 0.900000 0.400000
vt 0.000000 0.600000
vt 0.100000 0.600000
vt 0.200000 0.600000
vt 0.300000 0.600000
vt 0.400000 0.600000
vt 0.500000 0.600000
vt 0.600000 0.600000
vt 0.700000 0.600000
vt 0.800000 0.600000
vt 0.900000 0.600000
vt 0.000000 0.800000
vt 0.100000 0.800000
vt 0.200000 0.800000
vt 0.300000 0.800000
vt 0.400000 0.800000
vt 0.500000 0.800000
vt 0.600000 0.800000
vt 0.700000 0.800000
vt 0.800000 0.800000
vt 0.900000 0.800000
vt 0.500000 1.000000
f 129/129 5/5 4/4 128/128
f 128/128 4/4 2/2 130/130
f 130/130 2/2 3/3 131/131
f 129/129 9/9 14/14 132/132
f 30/30 70/70 69/69 28/28
f 131/131 3/3 10/10 135/135
f 9/9 129/129 128/128 8/8
f 67/67 20/20 151/151 119/119
f 119/119 151/151 150/150 103/103
f 65/65 147/147 19/19 66/66
f 91/91 149/149 21/21 63/63
f 66/66 19/19 20/20 67/67
f 63/63 21/21 22/22 64/64
f 74/74 76/76 77/77 86/86
f 27/27 73/73 70/70 30/30
f 76/76 74/74 73/73 27/27
f 43/43 44/44 38/38 37/37
f 62/62 18/18 149/149 91/91
f 25/25 23/23 18/18 62/62
f 103/103 150/150 148/148 68/68
f 64/64 22/22 147/147 65/65
f 58/58 157/157 154/154 59/59
f 145/145 146/146 36/36 105/105
f 211/211 115/115 110/110 210/210
f 212/212 40/40 115/115 211/211
f 142/142 143/143 35/35 34/34
f 112/112 16/16 35/35 114/114
f 43/43 50/50 51/51 44/44
f 109/109 108/108 54/54 47/47
f 42/42 49/49 50/50 43/43
f 45/45 52/52 53/53 46/46
f 88/88 89/89 49/49 42/42
f 44/44 51/51 52/52 45/45
f 171/171 90/90 56/56 164/164
f 167/167 58/58 59/59 166/166
f 168/168 57/57 58/58 167/167
f 172/172 104/104 61/61 169/169
f 164/164 56/56 57/57 168/168
f 166/166 59/59 60/60 170/170
f 154/154 66/66 67/67 153/153
f 160/160 91/91 63/63 155/155
f 157/157 65/65 66/66 154/154
f 158/158 64/64 65/65 157/157
f 161/161 103/103 68/68 159/159
f 155/155 63/63 64/64 158/158
f 111/111 32/32 31/31 106/106
f 71/71 33/33 69/69 70/70
f 8/8 6/6 79/79 75/75
f 72/72 15/15 14/14 9/9
f 72/72 9/9 8/8 75/75
f 121/121 120/120 28/28 69/69
f 44/44 45/45 39/39 38/38
f 45/45 46/46 40/40 39/39
f 134/134 12/12 11/11 133/133
f 79/79 6/6 7/7 80/80
f 135/135 10/10 12/12 134/134
f 216/216 72/72 75/75 213/213
f 216/216 217/217 15/15 72/72
f 40/40 46/46 118/118 115/115
f 87/87 84/84 74/74 86/86
f 84/84 85/85 73/73 74/74
f 213/213 75/75 79/79 214/214
f 115/115 118/118 109/109 110/110
f 165/165 55/55 90/90 171/171
f 156/156 62/62 91/91 160/160
f 84/84 94/94 93/93 85/85
f 84/84 87/87 95/95 94/94
f 110/110 109/109 47/47 41/41
f 85/85 93/93 96/96 71/71
f 221/221 98/98 99/99 219/219
f 31/31 29/29 107/107 106/106
f 113/113 33/33 100/100 122/122
f 98/98 83/83 82/82 99/99
f 118/118 117/117 108/108 109/109
f 33/33 71/71 96/96 100/100
f 162/162 119/119 103/103 161/161
f 85/85 71/71 70/70 73/73
f 102/102 97/97 32/32 111/111
f 173/173 116/116 104/104 172/172
f 17/17 101/101 105/105 36/36
f 113/113 111/111 106/106 121/121
f 214/214 220/220 100/100 96/96
f 163/163 26/26 55/55 165/165
f 90/90 160/160 155/155 56/56
f 83/83 98/98 1/1 81/81
f 81/81 1/1 80/80 7/7
f 101/101 112/112 114/114 105/105
f 106/106 107/107 120/120 121/121
f 111/111 113/113 122/122 102/102
f 46/46 53/53 117/117 118/118
f 153/153 67/67 119/119 162/162
f 170/170 60/60 116/116 173/173
f 33/33 113/113 121/121 69/69
f 221/221 102/102 122/122 222/222
f 222/222 122/122 100/100 220/220
f 12/12 125/125 124/124 11/11
f 10/10 126/126 125/125 12/12
f 2/2 123/123 127/127 3/3
f 3/3 127/127 126/126 10/10
f 8/8 128/128 130/130 6/6
f 6/6 130/130 131/131 7/7
f 7/7 131/131 135/135 81/81
f 83/83 134/134 133/133 82/82
f 81/81 135/135 134/134 83/83
f 210/210 209/209 136/136 137/137
f 144/144 138/138 137/137 145/145
f 143/143 139/139 138/138 144/144
f 215/215 212/212 139/139 140/140
f 218/218 215/215 140/140 141/141
f 140/140 139/139 143/143 142/142
f 137/137 136/136 146/146 145/145
f 114/114 144/144 145/145 105/105
f 35/35 143/143 144/144 114/114
f 59/59 154/154 153/153 60/60
f 57/57 158/158 157/157 58/58
f 104/104 161/161 159/159 61/61
f 56/56 155/155 158/158 57/57
f 55/55 156/156 160/160 90/90
f 116/116 162/162 161/161 104/104
f 60/60 153/153 162/162 116/116
f 25/25 62/62 156/156 152/152
f 156/156 55/55 26/26 152/152
f 217/217 223/223 174/174 15/15
f 177/177 95/95 87/87 176/176
f 86/86 175/175 176/176 87/87
f 175/175 178/178 179/179 176/176
f 180/180 177/177 176/176 179/179
f 178/178 181/181 182/182 179/179
f 181/181 178/178 78/78 24/24
f 86/86 77/77 92/92 175/175
f 92/92 78/78 178/178 175/175
f 13/13 14/14 15/15 174/174
f 247/247 23/23 25/25 244/244
f 242/242 186/186 188/188 241/241
f 243/243 189/189 186/186 242/242
f 244/244 25/25 152/152 248/248
f 189/189 196/196 193/193 186/186
f 192/192 185/185 188/188 195/195
f 186/186 193/193 195/195 188/188
f 190/190 183/183 185/185 192/192
f 197/197 190/190 192/192 199/199
f 196/196 203/203 200/200 193/193
f 199/199 192/192 195/195 202/202
f 193/193 200/200 202/202 195/195
f 233/233 206/206 207/207 230/230
f 231/231 208/208 206/206 233/233
f 237/237 205/205 207/207 235/235
f 238/238 204/204 205/205 237/237
f 138/138 211/211 210/210 137/137
f 139/139 212/212 211/211 138/138
f 94/94 216/216 213/213 93/93
f 94/94 95/95 217/217 216/216
f 93/93 213/213 214/214 96/96
f 102/102 221/221 219/219 97/97
f 79/79 80/80 220/220 214/214
f 98/98 221/221 222/222 1/1
f 1/1 222/222 220/220 80/80
f 110/110 41/41 209/209 210/210
f 39/39 40/40 212/212 215/215
f 38/38 39/39 215/215 218/218
f 95/95 177/177 223/223 217/217
f 177/177 180/180 224/224 223/223
f 236/236 225/225 226/226 235/235
f 205/205 232/232 230/230 207/207
f 204/204 229/229 232/232 205/205
f 231/231 233/233 200/200 203/203
f 233/233 230/230 202/202 200/200
f 199/199 202/202 230/230 232/232
f 197/197 199/199 232/232 229/229
f 227/227 237/237 235/235 226/226
f 228/228 238/238 237/237 227/227
f 208/208 234/234 236/236 206/206
f 206/206 236/236 235/235 207/207
f 183/183 240/240 239/239 185/185
f 245/245 242/242 241/241 248/248
f 185/185 239/239 241/241 188/188
f 240/240 247/247 244/244 239/239
f 239/239 244/244 248/248 241/241
f 26/26 245/245 248/248 152/152
f 24/24 246/246 249/249 181/181
f 194/194 201/201 203/203 196/196
f 196/196 189/189 187/187 194/194
f 89/89 48/48 165/165 171/171
f 171/171 164/164 49/49 89/89
f 164/164 168/168 50/50 49/49
f 198/198 191/191 190/190 197/197
f 183/183 190/190 191/191 184/184
f 246/246 24/24 23/23 247/247
f 18/18 23/23 24/24 78/78
f 149/149 18/18 78/78 92/92
f 21/21 149/149 92/92 77/77
f 22/22 21/21 77/77 76/76
f 147/147 22/22 76/76 27/27
f 19/19 147/147 27/27 30/30
f 20/20 19/19 30/30 28/28
f 151/151 20/20 28/28 120/120
f 150/150 151/151 120/120 107/107
f 148/148 150/150 107/107 29/29
f 168/168 167/167 51/51 50/50
f 167/167 166/166 52/52 51/51
f 166/166 170/170 53/53 52/52
f 117/117 53/53 170/170 173/173
f 173/173 172/172 108/108 117/117
f 172/172 169/169 54/54 108/108
f 363/363 362/362 253/253 254/254
f 362/362 364/364 251/251 253/253
f 364/364 365/365 252/252 251/251
f 363/363 366/366 262/262 258/258
f 276/276 275/275 307/307 308/308
f 365/365 368/368 259/259 252/252
f 258/258 257/257 362/362 363/363
f 306/306 354/354 381/381 267/267
f 354/354 338/338 380/380 381/381
f 304/304 305/305 266/266 378/378
f 328/328 302/302 268/268 379/379
f 305/305 306/306 267/267 266/266
f 302/302 303/303 269/269 268/268
f 312/312 323/323 315/315 314/314
f 274/274 276/276 308/308 311/311
f 314/314 274/274 311/311 312/312
f 285/285 280/280 281/281 286/286
f 301/301 328/328 379/379 265/265
f 272/272 301/301 265/265 270/270
f 338/338 68/68 148/148 380/380
f 303/303 304/304 378/378 269/269
f 298/298 299/299 384/384 387/387
f 377/377 340/340 36/36 146/146
f 438/438 437/437 345/345 350/350
f 439/439 438/438 350/350 283/283
f 374/374 278/278 279/279 375/375
f 347/347 349/349 279/279 264/264
f 285/285 286/286 292/292 291/291
f 344/344 47/47 54/54 343/343
f 284/284 285/285 291/291 290/290
f 287/287 288/288 294/294 293/293
f 325/325 284/284 290/290 326/326
f 286/286 287/287 293/293 292/292
f 399/399 393/393 296/296 327/327
f 396/396 395/395 299/299 298/298
f 397/397 396/396 298/298 297/297
f 400/400 169/169 61/61 339/339
f 393/393 397/397 297/297 296/296
f 395/395 398/398 300/300 299/299
f 384/384 383/383 306/306 305/305
f 389/389 385/385 302/302 328/328
f 387/387 384/384 305/305 304/304
f 388/388 387/387 304/304 303/303
f 390/390 159/159 68/68 338/338
f 385/385 388/388 303/303 302/302
f 346/346 341/341 31/31 32/32
f 309/309 308/308 307/307 277/277
f 257/257 313/313 317/317 255/255
f 310/310 258/258 262/262 263/263
f 310/310 313/313 257/257 258/258
f 356/356 307/307 275/275 355/355
f 286/286 281/281 282/282 287/287
f 287/287 282/282 283/283 288/288
f 367/367 133/133 11/11 260/260
f 317/317 318/318 256/256 255/255
f 368/368 367/367 260/260 259/259
f 443/443 440/440 313/313 310/310
f 443/443 310/310 263/263 444/444
f 283/283 350/350 353/353 288/288
f 324/324 323/323 312/312 321/321
f 321/321 312/312 311/311 322/322
f 440/440 441/441 317/317 313/313
f 350/350 345/345 344/344 353/353
f 394/394 399/399 327/327 295/295
f 386/386 389/389 328/328 301/301
f 321/321 322/322 330/330 331/331
f 321/321 331/331 332/332 324/324
f 345/345 41/41 47/47 344/344
f 322/322 309/309 333/333 330/330
f 447/447 219/219 99/99 334/334
f 31/31 341/341 342/342 29/29
f 348/348 357/357 335/335 277/277
f 334/334 99/99 82/82 320/320
f 353/353 344/344 343/343 352/352
f 277/277 335/335 333/333 309/309
f 391/391 390/390 338/338 354/354
f 322/322 311/311 308/308 309/309
f 337/337 346/346 32/32 97/97
f 401/401 400/400 339/339 351/351
f 17/17 36/36 340/340 336/336
f 348/348 356/356 341/341 346/346
f 441/441 333/333 335/335 446/446
f 392/392 394/394 295/295 273/273
f 327/327 296/296 385/385 389/389
f 320/320 319/319 250/250 334/334
f 319/319 256/256 318/318 250/250
f 336/336 340/340 349/349 347/347
f 341/341 356/356 355/355 342/342
f 346/346 337/337 357/357 348/348
f 288/288 353/353 352/352 294/294
f 383/383 391/391 354/354 306/306
f 398/398 401/401 351/351 300/300
f 277/277 307/307 356/356 348/348
f 447/447 448/448 357/357 337/337
f 448/448 446/446 335/335 357/357
f 260/260 11/11 124/124 359/359
f 259/259 260/260 359/359 360/360
f 251/251 252/252 361/361 358/358
f 252/252 259/259 360/360 361/361
f 257/257 255/255 364/364 362/362
f 255/255 256/256 365/365 364/364
f 256/256 319/319 368/368 365/365
f 320/320 82/82 133/133 367/367
f 319/319 320/320 367/367 368/368
f 437/437 369/369 136/136 209/209
f 376/376 377/377 369/369 370/370
f 375/375 376/376 370/370 371/371
f 442/442 372/372 371/371 439/439
f 445/445 373/373 372/372 442/442
f 372/372 374/374 375/375 371/371
f 369/369 377/377 146/146 136/136
f 349/349 340/340 377/377 376/376
f 279/279 349/349 376/376 375/375
f 299/299 300/300 383/383 384/384
f 297/297 298/298 387/387 388/388
f 339/339 61/61 159/159 390/390
f 296/296 297/297 388/388 385/385
f 295/295 327/327 389/389 386/386
f 351/351 339/339 390/390 391/391
f 300/300 351/351 391/391 383/383
f 272/272 382/382 386/386 301/301
f 386/386 382/382 273/273 295/295
f 444/444 263/263 402/402 449/449
f 405/405 404/404 324/324 332/332
f 323/323 324/324 404/404 403/403
f 403/403 404/404 407/407 406/406
f 408/408 407/407 404/404 405/405
f 406/406 407/407 410/410 409/409
f 409/409 271/271 316/316 406/406
f 323/323 403/403 329/329 315/315
f 329/329 403/403 406/406 316/316
f 261/261 402/402 263/263 262/262
f 473/473 470/470 272/272 270/270
f 468/468 467/467 416/416 414/414
f 469/469 468/468 414/414 417/417
f 470/470 474/474 382/382 272/272
f 417/417 414/414 421/421 424/424
f 420/420 423/423 416/416 413/413
f 414/414 416/416 423/423 421/421
f 418/418 420/420 413/413 411/411
f 425/425 427/427 420/420 418/418
f 424/424 421/421 428/428 431/431
f 427/427 430/430 423/423 420/420
f 421/421 423/423 430/430 428/428
f 459/459 456/456 435/435 434/434
f 457/457 459/459 434/434 436/436
f 463/463 461/461 435/435 433/433
f 464/464 463/463 433/433 432/432
f 370/370 369/369 437/437 438/438
f 371/371 370/370 438/438 439/439
f 331/331 330/330 440/440 443/443
f 331/331 443/443 444/444 332/332
f 330/330 333/333 441/441 440/440
f 337/337 97/97 219/219 447/447
f 317/317 441/441 446/446 318/318
f 334/334 250/250 448/448 447/447
f 250/250 318/318 446/446 448/448
f 345/345 437/437 209/209 41/41
f 282/282 442/442 439/439 283/283
f 281/281 445/445 442/442 282/282
f 332/332 444/444 449/449 405/405
f 405/405 449/449 450/450 408/408
f 462/462 461/461 452/452 451/451
f 433/433 435/435 456/456 458/458
f 432/432 433/433 458/458 455/455
f 457/457 431/431 428/428 459/459
f 459/459 428/428 430/430 456/456
f 427/427 458/458 456/456 430/430
f 425/425 455/455 458/458 427/427
f 453/453 452/452 461/461 463/463
f 454/454 453/453 463/463 464/464
f 436/436 434/434 462/462 460/460
f 434/434 435/435 461/461 462/462
f 411/411 413/413 465/465 466/466
f 471/471 474/474 467/467 468/468
f 413/413 416/416 467/467 465/465
f 466/466 465/465 470/470 473/473
f 465/465 467/467 474/474 470/470
f 273/273 382/382 474/474 471/471
f 271/271 409/409 475/475 472/472
f 422/422 424/424 431/431 429/429
f 424/424 422/422 415/415 417/417
f 326/326 399/399 394/394 289/289
f 399/399 326/326 290/290 393/393
f 393/393 290/290 291/291 397/397
f 426/426 425/425 418/418 419/419
f 411/411 412/412 419/419 418/418
f 472/472 473/473 270/270 271/271
f 265/265 316/316 271/271 270/270
f 379/379 329/329 316/316 265/265
f 268/268 315/315 329/329 379/379
f 269/269 314/314 315/315 268/268
f 378/378 274/274 314/314 269/269
f 266/266 276/276 274/274 378/378
f 267/267 275/275 276/276 266/266
f 381/381 355/355 275/275 267/267
f 380/380 342/342 355/355 381/381
f 148/148 29/29 342/342 380/380
f 397/397 291/291 292/292 396/396
f 396/396 292/292 293/293 395/395
f 395/395 293/293 294/294 398/398
f 352/352 401/401 398/398 294/294
f 401/401 352/352 343/343 400/400
f 400/400 343/343 54/54 169/169
f 476/476 477/477 487/487 486/486
f 477/477 478/478 488/488 487/487
f 478/478 479/479 489/489 488/488
f 479/479 480/480 490/490 489/489
f 480/480 481/481 491/491 490/490
f 481/481 482/482 492/492 491/491
f 482/482 483/483 493/493 492/492
f 483/483 484/484 494/494 493/493
f 484/484 485/485 495/495 494/494
f 485/485 476/476 486/486 495/495
f 486/486 487/487 497/497 496/496
f 487/487 488/488 498/498 497/497
f 488/488 489/489 499/499 498/498
f 489/489 490/490 500/500 499/499
f 490/490 491/491 501/501 500/500
f 491/491 492/492 502/502 501/501
f 492/492 493/493 503/503 502/502
f 493/493 494/494 504/504 503/503
f 494/494 495/495 505/505 504/504
f 495/495 486/486 496/496 505/505
f 496/496 497/497 507/507 506/506
f 497/497 498/498 508/508 507/507
f 498/498 499/499 509/509 508/508
f 499/499 500/500 510/510 509/509
f 500/500 501/501 511/511 510/510
f 501/501 502/502 512/512 511/511
f 502/502 503/503 513/513 512/512
f 503/503 504/504 514/514 513/513
f 504/504 505/505 515/515 514/514
f 505/505 496/496 506/506 515/515
f 506/506 507/507 517/517 516/516
f 507/507 508/508 518/518 517/517
f 508/508 509/509 519/519 518/518
f 509/509 510/510 520/520 519/519
f 510/510 511/511 521/521 520/520
f 511/511 512/512 522/522 521/521
f 512/512 513/513 523/523 522/522
f 513/513 514/514 524/524 523/523
f 514/514 515/515 525/525 524/524
f 515/515 506/506 516/516 525/525
f 516/516 517/517 526/526
f 517/517 518/518 526/526
f 518/518 519/519 526/526
f 519/519 520/520 526/526
f 520/520 521/521 526/526
f 521/521 522/522 526/526
f 522/522 523/523 526/526
f 523/523 524/524 526/526
f 524/524 525/525 526/526
f 525/525 516/516 526/526
f 527/527 528/528 538/538 537/537
f 528/528 529/529 539/539 538/538
f 529/529 530/530 540/540 539/539
f 530/530 531/531 541/541 540/540
f 531/531 532/532 542/542 541/541
f 532/532 533/533 543/543 542/542
f 533/533 534/534 544/544 543/543
f 534/534 535/535 545/545 544/544
f 535/535 536/536 546/546 545/545
f 536/536 527/527 537/537 546/546
f 537/537 538/538 548/548 547/547
f 538/538 539/539 549/549 548/548
f 539/539 540/540 550/550 549/549
f 540/540 541/541 551/551 550/550
f 541/541 542/542 552/552 551/551
f 542/542 543/543 553/553 552/552
f 543/543 544/544 554/554 553/553
f 544/544 545/545 555/555 554/554
f 545/545 546/546 556/556 555/555
f 546/546 537/537 547/547 556/556
f 547/547 548/548 558/558 557/557
f 548/548 549/549 559/559 558/558
f 549/549 550/550 560/560 559/559
f 550/550 551/551 561/561 560/560
f 551/551 552/552 562/562 561/561
f 552/552 553/553 563/563 562/562
f 553/553 554/554 564/564 563/563
f 554/554 555/555 565/565 564/564
f 555/555 556/556 566/566 565/565
f 556/556 547/547 557/557 566/566
f 557/557 558/558 568/568 567/567
f 558/558 559/559 569/569 568/568
f 559/559 560/560 570/570 569/569
f 560/560 561/561 571/571 570/570
f 561/561 562/562 572/572 571/571
f 562/562 563/563 573/573 572/572
f 563/563 564/564 574/574 573/573
f 564/564 565/565 575/575 574/574
f 565/565 566/566 576/576 575/575
f 566/566 557/557 567/567 576/576
f 567/567 568/568 577/577
f 568/568 569/569 577/577
f 569/569 570/570 577/577
f 570/570 571/571 577/577
f 571/571 572/572 577/577
f 572/572 573/573 577/577
f 573/573 574/574 577/577
f 574/574 575/575 577/577
f 575/575 576/576 577/577
f 576/576 567/567 577/577
f 578/578 579/579 589/589 588/588
f 579/579 580/580 590/590 589/589
f 580/580 581/581 591/591 590/590
f 581/581 582/582 592/592 591/591
f 582/582 583/583 593/593 592/592
f 583/583 584/584 594/594 593/593
f 584/584 585/585 595/595 594/594
f 585/585 586/586 596/596 595/595
f 586/586 587/587 597/597 596/596
f 587/587 578/578 588/588 597/597
f 588/588 589/589 599/599 598/598
f 589/589 590/590 600/600 599/599
f 590/590 591/591 601/601 600/600
f 591/591 592/592 602/602 601/601
f 592/592 593/593 603/603 602/602
f 593/593 594/594 604/604 603/603
f 594/594 595/595 605/605 604/604
f 595/595 596/596 606/606 605/605
f 596/596 597/597 607/607 606/606
f 597/597 588/588 598/598 607/607
f 598/598 599/599 609/609 608/608
f 599/599 600/600 610/610 609/609
f 600/600 601/601 611/611 610/610
f 601/601 602/602 612/612 611/611
f 602/602 603/603 613/613 612/612
f 603/603 604/604 614/614 613/613
f 604/604 605/605 615/615 614/614
f 605/605 606/606 616/616 615/615
f 606/606 607/607 617/617 616/616
f 607/607 598/598 608/608 617/617
f 608/608 609/609 619/619 618/618
f 609/609 610/610 620/620 619/619
f 610/610 611/611 621/621 620/620
f 611/611 612/612 622/622 621/621
f 612/612 613/613 623/623 622/622
f 613/613 614/614 624/624 623/623
f 614/614 615/615 625/625 624/624
f 615/615 616/616 626/626 625/625
f 616/616 617/617 627/627 626/626
f 617/617 608/608 618/618 627/627
f 618/618 619/619 628/628
f 619/619 620/620 628/628
f 620/620 621/621 628/628
f 621/621 622/622 628/628
f 622/622 623/623 628/628
f 623/623 624/624 628/628
f 624/624 625/625 628/628
f 625/625 626/626 628/628
f 626/626 627/627 628/628
f 627/627 618/618 628/628
f 629/629 630/630 640/640 639/639
f 630/630 631/631 641/641 640/640
f 631/631 632/632 642/642 641/641
f 632/632 633/633 643/643 642/642
f 633/633 634/634 644/644 643/643
f 634/634 635/635 645/645 644/644
f 635/635 636/636 646/646 645/645
f 636/636 637/637 647/647 646/646
f 637/637 638/638 648/648 647/647
f 638/638 629/629 639/639 648/648
f 639/639 640/640 650/650 649/649
f 640/640 641/641 651/651 650/650
f 641/641 642/642 652/652 651/651
f 642/642 643/643 653/653 652/652
f 643/643 644/644 654/654 653/653
f 644/644 645/645 655/655 654/654
f 645/645 646/646 656/656 655/655
f 646/646 647/647 657/657 656/656
f 647/647 648/648 658/658 657/657
f 648/648 639/639 649/649 658/658
f 649/649 650/650 660/660 659/659
f 650/650 651/651 661/661 660/660
f 651/651 652/652 662/662 661/661
f 652/652 653/653 663/663 662/662
f 653/653 654/654 664/664 663/663
f 654/654 655/655 665/665 664/664
f 655/655 656/656 666/666 665/665
f 656/656 657/657 667/667 666/666
f 657/657 658/658 668/668 667/667
f 658/658 649/649 659/659 668/668
f 659/659 660/660 670/670 669/669
f 660/660 661/661 671/671 670/670
f 661/661 662/662 672/672 671/671
f 662/662 663/663 673/673 672/672
f 663/663 664/664 674/674 673/673
f 664/664 665/665 675/675 674/674
f 665/665 666/666 676/676 675/675
f 666/666 667/667 677/677 676/676
f 667/667 668/668 678/678 677/677
f 668/668 659/659 669/669 678/678
f 669/669 670/670 679/679
f 670/670 671/671 679/679
f 671/671 672/672 679/679
f 672/672 673/673 679/679
f 673/673 674/674 679/679
f 674/674 675/675 679/679
f 675/675 676/676 679/679
f 676/676 677/677 679/679
f 677/677 678/678 679/679
f 678/678 669/669 679/679
f 680/680 681/681 691/691 690/690
f 681/681 682/682 692/692 691/691
f 682/682 683/683 693/693 692/692
f 683/683 684/684 694/694 693/693
f 684/684 685/685 695/695 694/694
f 685/685 686/686 696/696 695/695
f 686/686 687/687 697/697 696/696
f 687/687 688/688 698/698 697/697
f 688/688 689/689 699/699 698/698
f 689/689 680/680 690/690 699/699
f 690/690 691/691 701/701 700/700
f 691/691 692/692 702/702 701/701
f 692/692 693/693 703/703 702/702
f 693/693 694/694 704/704 703/703
f 694/694 695/695 705/705 704/704
f 695/695 696/696 706/706 705/705
f 696/696 697/697 707/707 706/706
f 697/697 698/698 708/708 707/707
f 698/698 699/699 709/709 708/708
f 699/699 690/690 700/700 709/709
f 700/700 701/701 711/711 710/710
f 701/701 702/702 712/712 711/711
f 702/702 703/703 713/713 712/712
f 703/703 704/704 714/714 713/713
f 704/704 705/705 715/715 714/714
f 705/705 706/706 716/716 715/715
f 706/706 707/707 717/717 716/716
f 707/707 708/708 718/718 717/717
f 708/708 709/709 719/719 718/718
f 709/709 700/700 710/710 719/719
f 710/710 711/711 721/721 720/720
f 711/711 712/712 722/722 721/721
f 712/712 713/713 723/723 722/722
f 713/713 714/714 724/724 723/723
f 714/714 715/715 725/725 724/724
f 715/715 716/716 726/726 725/725
f 716/716 717/717 727/727 726/726
f 717/717 718/718 728/728 727/727
f 718/718 719/719 729/729 728/728
f 719/719 710/710 720/720 729/729
f 720/720 721/721 730/730
f 721/721 722/722 730/730
f 722/722 723/723 730/730
f 723/723 724/724 730/730
f 724/724 725/725 730/730
f 725/725 726/726 730/730
f 726/726 727/727 730/730
f 727/727 728/728 730/730
f 728/728 729/729 730/730
f 729/729 720/720 730/730
f 731/731 732/732 742/742 741/741
f 732/732 733/733 743/743 742/742
f 733/733 734/734 744/744 743/743
f 734/734 735/735 745/745 744/744
f 735/735 736/736 746/746 745/745
f 736/736 737/737 747/747 746/746
f 737/737 738/738 748/748 747/747
f 738/738 739/739 749/749 748/748
f 739/739 740/740 750/750 749/749
f 740/740 731/731 741/741 750/750
f 741/741 742/742 752/752 751/751
f 742/742 743/743 753/753 752/752
f 743/743 744/744 754/754 753/753
f 744/744 745/745 755/755 754/754
f 745/745 746/746 756/756 755/755
f 746/746 747/747 757/757 756/756
f 747/747 748/748 758/758 757/757
f 748/748 749/749 759/759 758/758
f 749/749 750/750 760/760 759/759
f 750/750 741/741 751/751 760/760
f 751/751 752/752 762/762 761/761
f 752/752 753/753 763/763 762/762
f 753/753 754/754 764/764 763/763
f 754/754 755/755 765/765 764/764
f 755/755 756/756 766/766 765/765
f 756/756 757/757 767/767 766/766
f 757/757 758/758 768/768 767/767
f 758/758 759/759 769/769 768/768
f 759/759 760/760 770/770 769/769
f 760/760 751/751 761/761 770/770
f 761/761 762/762 772/772 771/771
f 762/762 763/763 773/773 772/772
f 763/763 764/764 774/774 773/773
f 764/764 765/765 775/775 774/774
f 765/765 766/766 776/776 775/775
f 766/766 767/767 777/777 776/776
f 767/767 768/768 778/778 777/777
f 768/768 769/769 779/779 778/778
f 769/769 770/770 780/780 779/779
f 770/770 761/761 771/771 780/780
f 771/771 772/772 781/781
f 772/772 773/773 781/781
f 773/773 774/774 781/781
f 774/774 775/775 781/781
f 775/775 776/776 781/781
f 776/776 777/777 781/781
f 777/777 778/778 781/781
f 778/778 779/779 781/781
f 779/779 780/780 781/781
f 780/780 771/771 781/781
f 782/782 783/783 793/793 792/792
f 783/783 784/784 794/794 793/793
f 784/784 785/785 795/795 794/794
f 785/785 786/786 796/796 795/795
f 786/786 787/787 797/797 796/796
f 787/787 788/788 798/798 797/797
f 788/788 789/789 799/799 798/798
f 789/789 790/790 800/800 799/799
f 790/790 791/791 801/801 800/800
f 791/791 782/782 792/792 801/801
f 792/792 793/793 803/803 802/802
f 793/793 794/794 804/804 803/803
f 794/794 795/795 805/805 804/804
f 795/795 796/796 806/806 805/805
f 796/796 797/797 807/807 806/806
f 797/797 798/798 808/808 807/807
f 798/798 799/799 809/809 808/808
f 799/799 800/800 810/810 809/809
f 800/800 801/801 811/811 810/810
f 801/801 792/792 802/802 811/811
f 802/802 803/803 813/813 812/812
f 803/803 804/804 814/814 813/813
f 804/804 805/805 815/815 814/814
f 805/805 806/806 816/816 815/815
f 806/806 807/807 817/817 816/816
f 807/807 808/808 818/818 817/817
f 808/808 809/809 819/819 818/818
f 809/809 810/810 820/820 819/819
f 810/810 811/811 821/821 820/820
f 811/811 802/802 812/812 821/821
f 812/812 813/813 823/823 822/822
f 813/813 814/814 824/824 823/823
f 814/814 815/815 825/825 824/824
f 815/815 816/816 826/826 825/825
f 816/816 817/817 827/827 826/826
f 817/817 818/818 828/828 827/827
f 818/818 819/819 829/829 828/828
f 819/819 820/820 830/830 829/829
f 820/820 821/821 831/831 830/830
f 821/821 812/812 822/822 831/831
f 822/822 823/823 832/832
f 823/823 824/824 832/832
f 824/824 825/825 832/832
f 825/825 826/826 832/832
f 826/826 827/827 832/832
f 827/827 828/828 832/832
f 828/828 829/829 832/832
f 829/829 830/830 832/832
f 830/830 831/831 832/832
f 831/831 822/822 832/832
f 833/833 834/834 844/844 843/843
f 834/834 835/835 845/845 844/844
f 835/835 836/836 846/846 845/845
f 836/836 837/837 847/847 846/846
f 837/837 838/838 848/848 847/847
f 838/838 839/839 849/849 848/848
f 839/839 840/840 850/850 849/849
f 840/840 841/841 851/851 850/850
f 841/841 842/842 852/852 851/851
f 842/842 833/833 843/843 852/852
f 843/843 844/844 854/854 853/853
f 844/844 845/845 855/855 854/854
f 845/845 846/846 856/856 855/855
f 846/846 847/847 857/857 856/856
f 847/847 848/848 858/858 857/857
f 848/848 849/849 859/859 858/858
f 849/849 850/850 860/860 859/859
f 850/850 851/851 861/861 860/860
f 851/851 852/852 862/862 861/861
f 852/852 843/843 853/853 862/862
f 853/853 854/854 864/864 863/863
f 854/854 855/855 865/865 864/864
f 855/855 856/856 866/866 865/865
f 856/856 857/857 867/867 866/866
f 857/857 858/858 868/868 867/867
f 858/858 859/859 869/869 868/868
f 859/859 860/860 870/870 869/869
f 860/860 861/861 871/871 870/870
f 861/861 862/862 872/872 871/871
f 862/862 853/853 863/863 872/872
f 863/863 864/864 874/874 873/873
f 864/864 865/865 875/875 874/874
f 865/865 866/866 876/876 875/875
f 866/866 867/867 877/877 876/876
f 867/867 868/868 878/878 877/877
f 868/868 869/869 879/879 878/878
f 869/869 870/870 880/880 879/879
f 870/870 871/871 881/881 880/880
f 871/871 872/872 882/882 881/881
f 872/872 863/863 873/873 882/882
f 873/873 874/874 883/883
f 874/874 875/875 883/883
f 875/875 876/876 883/883
f 876/876 877/877 883/883
f 877/877 878/878 883/883
f 878/878 879/879 883/883
f 879/879 880/880 883/883
f 880/880 881/881 883/883
f 881/881 882/882 883/883
f 882/882 873/873 883/883
f 884/884 885/885 895/895 894/894
f 885/885 886/886 896/896 895/895
f 886/886 887/887 897/897 896/896
f 887/887 888/888 898/898 897/897
f 888/888 889/889 899/899 898/898
f 889/889 890/890 900/900 899/899
f 890/890 891/891 901/901 900/900
f 891/891 892/892 902/902 901/901
f 892/892 893/893 903/903 902/902
f 893/893 884/884 894/894 903/903
f 894/894 895/895 905/905 904/904
f 895/895 896/896 906/906 905/905
f 896/896 897/897 907/907 906/906
f 897/897 898/898 908/908 907/907
f 898/898 899/899 909/909 908/908
f 899/899 900/900 910/910 909/909
f 900/900 901/901 911/911 910/910
f 901/901 902/902 912/912 911/911
f 902/902 903/903 913/913 912/912
f 903/903 894/894 904/904 913/913
f 904/904 905/905 915/915 914/914
f 905/905 906/906 916/916 915/915
f 906/906 907/907 917/917 916/916
f 907/907 908/908 918/918 917/917
f 908/908 909/909 919/919 918/918
f 909/909 910/910 920/920 919/919
f 910/910 911/911 921/921 920/920
f 911/911 912/912 922/922 921/921
f 912/912 913/913 923/923 922/922
f 913/913 904/904 914/914 923/923
f 914/914 915/915 925/925 924/924
f 915/915 916/916 926/926 925/925
f 916/916 917/917 927/927 926/926
f 917/917 918/918 928/928 927/927
f 918/918 919/919 929/929 928/928
f 919/919 920/920 930/930 929/929
f 920/920 921/921 931/931 930/930
f 921/921 922/922 932/932 931/931
f 922/922 923/923 933/933 932/932
f 923/923 914/914 924/924 933/933
f 924/924 925/925 934/934
f 925/925 926/926 934/934
f 926/926 927/927 934/934
f 927/927 928/928 934/934
f 928/928 929/929 934/934
f 929/929 930/930 934/934
f 930/930 931/931 934/934
f 931/931 932/932 934/934
f 932/932 933/933 934/934
f 933/933 924/924 934/934
f 935/935 936/936 946/946 945/945
f 936/936 937/937 947/947 946/946
f 937/937 938/938 948/948 947/947
f 938/938 939/939 949/949 948/948
f 939/939 940/940 950/950 949/949
f 940/940 941/941 951/951 950/950
f 941/941 942/942 952/952 951/951
f 942/942 943/943 953/953 952/952
f 943/943 944/944 954/954 953/953
f 944/944 935/935 945/945 954/954
f 945/945 946/946 956/956 955/955
f 946/946 947/947 957/957 956/956
f 947/947 948/948 958/958 957/957
f 948/948 949/949 959/959 958/958
f 949/949 950/950 960/960 959/959
f 950/950 951/951 961/961 960/960
f 951/951 952/952 962/962 961/961
f 952/952 953/953 963/963 962/962
f 953/953 954/954 964/964 963/963
f 954/954 945/945 955/955 964/964
f 955/955 956/956 966/966 965/965
f 956/956 957/957 967/967 966/966
f 957/957 958/958 968/968 967/967
f 958/958 959/959 969/969 968/968
f 959/959 960/960 970/970 969/969
f 960/960 961/961 971/971 970/970
f 961/961 962/962 972/972 971/971
f 962/962 963/963 973/973 972/972
f 963/963 964/964 974/974 973/973
f 964/964 955/955 965/965 974/974
f 965/965 966/966 976/976 975/975
f 966/966 967/967 977/977 976/976
f 967/967 968/968 978/978 977/977
f 968/968 969/969 979/979 978/978
f 969/969 970/970 980/980 979/979
f 970/970 971/971 981/981 980/980
f 971/971 972/972 982/982 981/981
f 972/972 973/973 983/983 982/982
f 973/973 974/974 984/984 983/983
f 974/974 965/965 975/975 984/984
f 975/975 976/976 985/985
f 976/976 977/977 985/985
f 977/977 978/978 985/985
f 978/978 979/979 985/985
f 979/979 980/980 985/985
f 980/980 981/981 985/985
f 981/981 982/982 985/985
f 982/982 983/983 985/985
f 983/983 984/984 985/985
f 984/984 975/975 985/985
f 986/986 987/987 997/997 996/996
f 987/987 988/988 998/998 997/997
f 988/988 989/989 999/999 998/998
f 989/989 990/990 1000/1000 999/999
f 990/990 991/991 1001/1001 1000/1000
f 991/991 992/992 1002/1002 1001/1001
f 992/992 993/993 1003/1003 1002/1002
f 993/993 994/994 1004/1004 1003/1003
f 994/994 995/995 1005/1005 1004/1004
f 995/995 986/986 996/996 1005/1005
f 996/996 997/997 1007/1007 1006/1006
f 997/997 998/998 1008/1008 1007/1007
f 998/998 999/999 1009/1009 1008/1008
f 999/999 1000/1000 1010/1010 1009/1009
f 1000/1000 1001/1001 1011/1011 1010/1010
f 1001/1001 1002/1002 1012/1012 1011/1011
f 1002/1002 1003/1003 1013/1013 1012/1012
f 1003/1003 1004/1004 1014/1014 1013/1013
f 1004/1004 1005/1005 1015/1015 1014/1014
f 1005/1005 996/996 1006/1006 1015/1015
f 1006/1006 1007/1007 1017/1017 1016/1016
f 1007/1007 1008/1008 1018/1018 1017/1017
f 1008/1008 1009/1009 1019/1019 1018/1018
f 1009/1009 1010/1010 1020/1020 1019/1019
f 1010/1010 1011/1011 1021/1021 1020/1020
f 1011/1011 1012/1012 1022/1022 1021/1021
f 1012/1012 1013/1013 1023/1023 1022/1022
f 1013/1013 1014/1014 1024/1024 1023/1023
f 1014/1014 1015/1015 1025/1025 1024/1024
f 1015/1015 1006/1006 1016/1016 1025/1025
f 1016/1016 1017/1017 1027/1027 1026/1026
f 1017/1017 1018/1018 1028/1028 1027/1027
f 1018/1018 1019/1019 1029/1029 1028/1028
f 1019/1019 1020/1020 1030/1030 1029/1029
f 1020/1020 1021/1021 1031/1031 1030/1030
f 1021/1021 1022/1022 1032/1032 1031/1031
f 1022/1022 1023/1023 1033/1033 1032/1032
f 1023/1023 1024/1024 1034/1034 1033/1033
f 1024/1024 1025/1025 1035/1035 1034/1034
f 1025/1025 1016/1016 1026/1026 1035/1035
f 1026/1026 1027/1027 1036/1036
f 1027/1027 1028/1028 1036/1036
f 1028/1028 1029/1029 1036/1036
f 1029/1029 1030/1030 1036/1036
f 1030/1030 1031/1031 1036/1036
f 1031/1031 1032/1032 1036/1036
f 1032/1032 1033/1033 1036/1036
f 1033/1033 1034/1034 1036/1036
f 1034/1034 1035/1035 1036/1036
f 1035/1035 1026/1026 1036/1036
f 1037/1037 1038/1038 1048/1048 1047/1047
f 1038/1038 1039/1039 1049/1049 1048/1048
f 1039/1039 1040/1040 1050/1050 1049/1049
f 1040/1040 1041/1041 1051/1051 1050/1050
f 1041/1041 1042/1042 1052/1052 1051/1051
f 1042/1042 1043/1043 1053/1053 1052/1052
f 1043/1043 1044/1044 1054/1054 1053/1053
f 1044/1044 1045/1045 1055/1055 1054/1054
f 1045/1045 1046/1046 1056/1056 1055/1055
f 1046/1046 1037/1037 1047/1047 1056/1056
f 1047/1047 1048/1048 1058/1058 1057/1057
f 1048/1048 1049/1049 1059/1059 1058/1058
f 1049/1049 1050/1050 1060/1060 1059/1059
f 1050/1050 1051/1051 1061/1061 1060/1060
f 1051/1051 1052/1052 1062/1062 1061/1061
f 1052/1052 1053/1053 1063/1063 1062/1062
f 1053/1053 1054/1054 1064/1064 1063/1063
f 1054/1054 1055/1055 1065/1065 1064/1064
f 1055/1055 1056/1056 1066/1066 1065/1065
f 1056/1056 1047/1047 1057/1057 1066/1066
f 1057/1057 1058/1058 1068/1068 1067/1067
f 1058/1058 1059/1059 1069/1069 1068/1068
f 1059/1059 1060/1060 1070/1070 1069/1069
f 1060/1060 1061/1061 1071/1071 1070/1070
f 1061/1061 1062/1062 1072/1072 1071/1071
f 1062/1062 1063/1063 1073/1073 1072/1072
f 1063/1063 1064/1064 1074/1074 1073/1073
f 1064/1064 1065/1065 1075/1075 1074/1074
f 1065/1065 1066/1066 1076/1076 1075/1075
f 1066/1066 1057/1057 1067/1067 1076/1076
f 1067/1067 1068/1068 1078/1078 1077/1077
f 1068/1068 1069/1069 1079/1079 1078/1078
f 1069/1069 1070/1070 1080/1080 1079/1079
f 1070/1070 1071/1071 1081/1081 1080/1080
f 1071/1071 1072/1072 1082/1082 1081/1081
f 1072/1072 1073/1073 1083/1083 1082/1082
f 1073/1073 1074/1074 1084/1084 1083/1083
f 1074/1074 1075/1075 1085/1085 1084/1084
f 1075/1075 1076/1076 1086/1086 1085/1085
f 1076/1076 1067/1067 1077/1077 1086/1086
f 1077/1077 1078/1078 1087/1087
f 1078/1078 1079/1079 1087/1087
f 1079/1079 1080/1080 1087/1087
f 1080/1080 1081/1081 1087/1087
f 1081/1081 1082/1082 1087/1087
f 1082/1082 1083/1083 1087/1087
f 1083/1083 1084/1084 1087/1087
f 1084/1084 1085/1085 1087/1087
f 1085/1085 1086/1086 1087/1087
f 1086/1086 1077/1077 1087/1087
